M48
;Layer_Color=9474304
;FILE_FORMAT=2:5
INCH,TZ
;TYPE=PLATED
T01F00S00C0.01181
T02F00S00C0.01575
%
T01
X511811Y27559
Y39370
Y51181
Y62992
Y74803
Y86614
Y98425
Y110236
Y122047
Y133858
Y145669
Y157480
Y169291
Y181102
Y192913
Y204724
X59449Y138976
X51968Y133465
Y129134
X42070Y116702
X30709Y120472
Y127953
Y135433
Y142913
Y111417
X787Y113386
X-27559Y117976
X-40551Y116535
Y132283
Y141339
X-35433Y144882
X-40551Y151181
Y157480
Y163779
Y170079
Y176378
Y182677
X-26006Y179492
Y173193
Y166894
Y160594
Y154295
Y198390
Y204689
X-40551Y201575
Y207874
Y214173
Y220472
Y226772
Y233071
Y239370
Y245669
Y251969
Y257874
Y264567
Y270866
Y277165
Y280315
X-36636Y273980
X-33977Y273945
X-31518Y273980
X-28762
X-26006
Y267681
X-28762
X-31518
X-33977Y267646
X-36636Y267681
Y261382
X-33977Y261346
X-31518Y261382
X-28762
X-26006
Y255083
Y248783
Y242484
Y236185
Y229886
Y223587
Y217287
Y210988
X-22857Y261382
Y267681
Y273980
X511811Y275590
Y263779
Y251969
Y240158
Y228346
Y216535
Y287402
Y299213
Y311024
Y322835
Y334646
Y346457
Y358268
Y370079
T02
X112992Y334646
M30
