G04*
G04 #@! TF.GenerationSoftware,Altium Limited,Altium Designer,24.10.1 (45)*
G04*
G04 Layer_Physical_Order=1*
G04 Layer_Color=255*
%FSLAX25Y25*%
%MOIN*%
G70*
G04*
G04 #@! TF.SameCoordinates,45E3FD76-ABA5-4EB6-B63B-188F6C73D423*
G04*
G04*
G04 #@! TF.FilePolarity,Positive*
G04*
G01*
G75*
%ADD15C,0.00787*%
%ADD16C,0.00591*%
%ADD17C,0.01000*%
%ADD18R,0.03200X0.04000*%
G04:AMPARAMS|DCode=19|XSize=23.62mil|YSize=57.09mil|CornerRadius=2.01mil|HoleSize=0mil|Usage=FLASHONLY|Rotation=90.000|XOffset=0mil|YOffset=0mil|HoleType=Round|Shape=RoundedRectangle|*
%AMROUNDEDRECTD19*
21,1,0.02362,0.05307,0,0,90.0*
21,1,0.01961,0.05709,0,0,90.0*
1,1,0.00402,0.02653,0.00980*
1,1,0.00402,0.02653,-0.00980*
1,1,0.00402,-0.02653,-0.00980*
1,1,0.00402,-0.02653,0.00980*
%
%ADD19ROUNDEDRECTD19*%
G04:AMPARAMS|DCode=20|XSize=19.68mil|YSize=35.43mil|CornerRadius=3.25mil|HoleSize=0mil|Usage=FLASHONLY|Rotation=180.000|XOffset=0mil|YOffset=0mil|HoleType=Round|Shape=RoundedRectangle|*
%AMROUNDEDRECTD20*
21,1,0.01968,0.02894,0,0,180.0*
21,1,0.01319,0.03543,0,0,180.0*
1,1,0.00650,-0.00659,0.01447*
1,1,0.00650,0.00659,0.01447*
1,1,0.00650,0.00659,-0.01447*
1,1,0.00650,-0.00659,-0.01447*
%
%ADD20ROUNDEDRECTD20*%
%ADD21R,0.03150X0.03150*%
%ADD22R,0.02756X0.03543*%
%ADD23R,0.03347X0.03740*%
%ADD24R,0.06614X0.12362*%
%ADD25R,0.11024X0.02165*%
%ADD37C,0.03937*%
%ADD38C,0.01968*%
%ADD39C,0.01968*%
%ADD40C,0.02362*%
G36*
X40433Y324494D02*
Y313303D01*
X-3382Y269487D01*
X-42677D01*
Y269586D01*
X-44488D01*
Y272146D01*
X-42677D01*
Y272174D01*
X-34331D01*
X-34329Y272173D01*
X-33624D01*
X-33622Y272174D01*
X-6728D01*
X-6037Y272311D01*
X-5451Y272703D01*
X36710Y314864D01*
X37102Y315451D01*
X37239Y316142D01*
Y322008D01*
X39945Y324713D01*
X40433Y324494D01*
D02*
G37*
G36*
Y307486D02*
Y296374D01*
X7248Y263188D01*
X-42677D01*
Y263287D01*
X-44488D01*
Y265846D01*
X-42677D01*
Y265875D01*
X-34331D01*
X-34329Y265874D01*
X-33624D01*
X-33622Y265875D01*
X-2634D01*
X-1943Y266012D01*
X-1357Y266404D01*
X39933Y307694D01*
X40433Y307486D01*
D02*
G37*
G36*
X-33064Y137802D02*
X-32706Y137563D01*
X-32283Y137479D01*
X29711D01*
X29811Y136979D01*
X29705Y136935D01*
X29207Y136437D01*
X28937Y135785D01*
Y135081D01*
X29207Y134430D01*
X29705Y133931D01*
X30356Y133661D01*
X31061D01*
X31179Y133710D01*
X31594Y133432D01*
Y132600D01*
X-36220D01*
X-36643Y132516D01*
X-37001Y132277D01*
X-39075Y130202D01*
X-42677D01*
Y131004D01*
X-44488D01*
Y133563D01*
X-42677D01*
Y136713D01*
Y140453D01*
X-44488D01*
Y143012D01*
X-42677D01*
Y143743D01*
X-39004D01*
X-33064Y137802D01*
D02*
G37*
G36*
X65945Y141524D02*
Y136406D01*
X66611D01*
Y135078D01*
X65161D01*
X64776Y135002D01*
X64449Y134783D01*
X64231Y134456D01*
X64154Y134071D01*
Y132110D01*
X64231Y131725D01*
X64449Y131398D01*
X64776Y131179D01*
X65161Y131103D01*
X70468D01*
X70854Y131179D01*
X71181Y131398D01*
X71297Y131571D01*
X71797Y131420D01*
Y129762D01*
X71297Y129610D01*
X71181Y129783D01*
X70854Y130002D01*
X70468Y130078D01*
X65161D01*
X64776Y130002D01*
X64449Y129783D01*
X64231Y129456D01*
X64154Y129071D01*
Y127347D01*
X63654Y127139D01*
X58910Y131883D01*
X58552Y132122D01*
X58130Y132206D01*
X55016D01*
X54994Y132221D01*
X54572Y132305D01*
X53947D01*
X53613Y132805D01*
X53740Y133112D01*
Y133817D01*
X53470Y134468D01*
X52972Y134967D01*
X52321Y135236D01*
X51616D01*
X51438Y135162D01*
X45663Y140938D01*
X45304Y141177D01*
X45144Y141209D01*
X45194Y141709D01*
X65521D01*
X65945Y141524D01*
D02*
G37*
G36*
X79934Y127942D02*
X79034D01*
X77034Y129941D01*
X79034Y131941D01*
X79934D01*
Y127942D01*
D02*
G37*
G36*
X75834Y129941D02*
X77834Y127942D01*
X74934D01*
Y129941D01*
Y131941D01*
X77834D01*
X75834Y129941D01*
D02*
G37*
G36*
X54670Y129999D02*
X57673D01*
X64154Y123517D01*
Y122110D01*
X64231Y121725D01*
X64449Y121398D01*
X64776Y121179D01*
X65161Y121103D01*
X70468D01*
X70854Y121179D01*
X71181Y121398D01*
X71399Y121725D01*
X71451Y121987D01*
X72540D01*
Y121312D01*
X77461D01*
Y121312D01*
X77658D01*
Y121312D01*
X78914D01*
Y120603D01*
X77657D01*
Y120603D01*
X77460D01*
Y120603D01*
X72539D01*
Y119194D01*
X71451D01*
X71399Y119456D01*
X71181Y119783D01*
X70854Y120002D01*
X70468Y120078D01*
X65161D01*
X64776Y120002D01*
X64449Y119783D01*
X64231Y119456D01*
X64154Y119071D01*
Y117664D01*
X62161Y115671D01*
X29985D01*
X27023Y118632D01*
X27021Y119097D01*
X27074Y119241D01*
X27158Y119298D01*
X28437Y120577D01*
X28937Y120370D01*
Y120120D01*
X29207Y119469D01*
X29705Y118971D01*
X30356Y118701D01*
X31061D01*
X31179Y118749D01*
X31594Y118472D01*
Y118162D01*
X36516D01*
Y118162D01*
X36713D01*
Y118162D01*
X41634D01*
Y121719D01*
X41901Y121987D01*
X42722D01*
X42774Y121725D01*
X42992Y121398D01*
X43319Y121179D01*
X43705Y121103D01*
X49012D01*
X49397Y121179D01*
X49724Y121398D01*
X49943Y121725D01*
X50019Y122110D01*
Y122522D01*
X50422Y122602D01*
X50781Y122842D01*
X52749Y124810D01*
X52988Y125168D01*
X53072Y125591D01*
Y127732D01*
X53470Y128130D01*
X53740Y128781D01*
Y129486D01*
X53659Y129681D01*
X53804Y129898D01*
X54248Y130083D01*
X54670Y129999D01*
D02*
G37*
G36*
X545773Y391494D02*
X547010Y391163D01*
X548193Y390673D01*
X549303Y390032D01*
X550319Y389252D01*
X551225Y388347D01*
X552005Y387330D01*
X552645Y386221D01*
X553135Y385038D01*
X553467Y383800D01*
X553634Y382530D01*
Y381890D01*
X553634Y11811D01*
X553634Y11170D01*
X553467Y9900D01*
X553135Y8663D01*
X552645Y7480D01*
X552005Y6370D01*
X551225Y5354D01*
X550319Y4448D01*
X549303Y3669D01*
X548194Y3028D01*
X547010Y2538D01*
X545773Y2206D01*
X544503Y2039D01*
X543862Y2039D01*
X11811Y2039D01*
X11170Y2039D01*
X9900Y2206D01*
X8663Y2538D01*
X7480Y3028D01*
X6370Y3669D01*
X5354Y4448D01*
X4448Y5354D01*
X3669Y6370D01*
X3028Y7480D01*
X2538Y8663D01*
X2206Y9900D01*
X2039Y11171D01*
X2039Y11811D01*
X2039Y99508D01*
X1884Y100288D01*
X1442Y100950D01*
X780Y101392D01*
X-0Y101547D01*
X-23858Y101547D01*
X-23908Y101537D01*
X-23958Y101544D01*
X-24344Y101525D01*
X-24491Y101489D01*
X-24642D01*
X-25399Y101338D01*
X-25585Y101261D01*
X-25782Y101222D01*
X-26495Y100927D01*
X-26662Y100815D01*
X-26847Y100738D01*
X-27489Y100310D01*
X-27631Y100168D01*
X-27798Y100056D01*
X-28343Y99510D01*
X-28455Y99343D01*
X-28597Y99201D01*
X-29026Y98560D01*
X-29103Y98374D01*
X-29214Y98207D01*
X-29510Y97494D01*
X-29549Y97297D01*
X-29626Y97111D01*
X-29776Y96355D01*
Y96203D01*
X-29813Y96057D01*
X-29832Y95671D01*
X-29825Y95621D01*
X-29834Y95571D01*
X-29835Y93673D01*
X-32763D01*
X-32764Y105414D01*
X-32774Y105464D01*
X-32766Y105514D01*
X-32785Y105900D01*
X-32822Y106046D01*
Y106197D01*
X-32972Y106954D01*
X-33049Y107140D01*
X-33088Y107337D01*
X-33384Y108050D01*
X-33495Y108217D01*
X-33572Y108402D01*
X-34001Y109044D01*
X-34143Y109186D01*
X-34255Y109353D01*
X-34800Y109899D01*
X-34967Y110010D01*
X-35109Y110152D01*
X-35751Y110581D01*
X-35936Y110658D01*
X-36103Y110769D01*
X-36816Y111065D01*
X-37013Y111104D01*
X-37199Y111181D01*
X-37956Y111331D01*
X-38107D01*
X-38254Y111368D01*
X-38640Y111387D01*
X-38690Y111380D01*
X-38740Y111390D01*
X-42230D01*
X-42677Y111516D01*
Y112146D01*
X-11522D01*
X-11260Y111694D01*
X-10747Y111180D01*
X-10119Y110818D01*
X-9418Y110630D01*
X-8692D01*
X-7991Y110818D01*
X-7363Y111180D01*
X-6850Y111694D01*
X-6487Y112322D01*
X-6299Y113023D01*
Y113749D01*
X-6487Y114450D01*
X-6850Y115078D01*
X-7363Y115591D01*
X-7991Y115954D01*
X-8692Y116142D01*
X-9418D01*
X-10119Y115954D01*
X-10747Y115591D01*
X-11260Y115078D01*
X-11563Y114555D01*
X-42677D01*
Y115256D01*
X-44488D01*
Y117815D01*
X-42677D01*
Y118975D01*
X-29513D01*
X-29235Y118559D01*
X-29331Y118329D01*
Y117624D01*
X-29061Y116973D01*
X-28563Y116474D01*
X-27911Y116205D01*
X-27207D01*
X-26555Y116474D01*
X-26158Y116873D01*
X25661D01*
X27481Y115052D01*
X27290Y114590D01*
X13329D01*
Y114833D01*
X13243Y115267D01*
X12997Y115635D01*
X12629Y115880D01*
X12195Y115967D01*
X10876D01*
X10442Y115880D01*
X10074Y115635D01*
X9828Y115267D01*
X9742Y114833D01*
Y111939D01*
X9828Y111505D01*
X10074Y111137D01*
X10442Y110891D01*
X10876Y110805D01*
X12195D01*
X12629Y110891D01*
X12997Y111137D01*
X13243Y111505D01*
X13329Y111939D01*
Y112182D01*
X28241D01*
X28937Y111486D01*
Y111065D01*
X29207Y110414D01*
X29705Y109915D01*
X30356Y109646D01*
X31061D01*
X31712Y109915D01*
X32211Y110414D01*
X32480Y111065D01*
Y111770D01*
X32211Y112421D01*
X31712Y112919D01*
X31607Y112963D01*
X31706Y113463D01*
X62618D01*
X63041Y113547D01*
X63399Y113786D01*
X65715Y116103D01*
X70468D01*
X70854Y116179D01*
X71181Y116398D01*
X71399Y116725D01*
X71451Y116987D01*
X72539D01*
Y115288D01*
X77460D01*
Y115288D01*
X77657D01*
Y115288D01*
X82578D01*
Y120603D01*
X81322D01*
Y121312D01*
X82579D01*
Y126627D01*
X81322D01*
Y127154D01*
X83322D01*
Y132729D01*
X81322D01*
Y133662D01*
X81322Y133662D01*
X81230Y134123D01*
X80969Y134513D01*
X80969Y134513D01*
X75666Y139817D01*
X75275Y140078D01*
X74814Y140170D01*
X74814Y140170D01*
X71277D01*
X71086Y140631D01*
X72163Y141709D01*
X341233D01*
X466078Y16865D01*
X466078Y16865D01*
X466468Y16604D01*
X466929Y16512D01*
X466929Y16512D01*
X545275Y16512D01*
X545276Y16512D01*
X545736Y16604D01*
X546127Y16865D01*
X552033Y22771D01*
X552033Y22771D01*
X552294Y23161D01*
X552385Y23622D01*
Y370079D01*
X552294Y370540D01*
X552033Y370930D01*
X552033Y370930D01*
X545340Y377623D01*
X544949Y377884D01*
X544488Y377976D01*
X544488Y377976D01*
X477165D01*
X477165Y377976D01*
X476705Y377884D01*
X476314Y377623D01*
X476314Y377623D01*
X400682Y301992D01*
X67441D01*
Y307756D01*
X59252D01*
Y293819D01*
X67441D01*
Y299583D01*
X401181D01*
X401181Y299583D01*
X401642Y299675D01*
X402033Y299936D01*
X477664Y375567D01*
X543989D01*
X549977Y369580D01*
Y24121D01*
X544777Y18921D01*
X467428Y18921D01*
X342584Y143765D01*
X342193Y144026D01*
X341732Y144118D01*
X341732Y144118D01*
X71665D01*
X71665Y144118D01*
X71665Y144118D01*
X32010D01*
X31712Y144415D01*
X31061Y144685D01*
X30356D01*
X29705Y144415D01*
X29207Y143917D01*
X28937Y143266D01*
Y142561D01*
X29207Y141910D01*
X29355Y141761D01*
X29148Y141261D01*
X-30251D01*
X-33661Y144671D01*
Y145234D01*
X-33931Y145885D01*
X-34429Y146384D01*
X-35081Y146653D01*
X-35785D01*
X-36437Y146384D01*
X-36935Y145885D01*
X-37047Y145615D01*
X-37637Y145497D01*
X-37767Y145627D01*
X-38125Y145866D01*
X-38547Y145950D01*
X-42677D01*
Y149901D01*
X-44488D01*
Y152461D01*
X-42677D01*
Y153191D01*
X-29421D01*
X-28999Y153275D01*
X-28641Y153515D01*
X-28240Y153916D01*
X-27698Y153750D01*
X-27508Y153292D01*
X-27010Y152793D01*
X-26359Y152524D01*
X-25654D01*
X-25003Y152793D01*
X-24605Y153191D01*
X342106D01*
X472456Y22841D01*
X472814Y22602D01*
X473237Y22518D01*
X530709D01*
X531131Y22602D01*
X531489Y22841D01*
X533845Y25197D01*
X537008D01*
Y29921D01*
X532283D01*
Y26758D01*
X531209Y25683D01*
X530709Y25890D01*
Y29921D01*
X525984D01*
Y28763D01*
X524353D01*
Y29006D01*
X524266Y29440D01*
X524020Y29808D01*
X523653Y30054D01*
X523218Y30140D01*
X521900D01*
X521466Y30054D01*
X521098Y29808D01*
X520852Y29440D01*
X520766Y29006D01*
Y26112D01*
X520852Y25678D01*
X521098Y25310D01*
X521224Y25226D01*
X521072Y24726D01*
X473694D01*
X464591Y33829D01*
X464798Y34329D01*
X530709D01*
X531131Y34413D01*
X531489Y34653D01*
X533845Y37008D01*
X537008D01*
Y41732D01*
X532283D01*
Y38569D01*
X531209Y37494D01*
X530709Y37701D01*
Y41732D01*
X525984D01*
Y40574D01*
X524353D01*
Y40817D01*
X524266Y41251D01*
X524020Y41619D01*
X523653Y41865D01*
X523218Y41951D01*
X521900D01*
X521466Y41865D01*
X521098Y41619D01*
X520852Y41251D01*
X520766Y40817D01*
Y37923D01*
X520852Y37489D01*
X521098Y37121D01*
X521224Y37037D01*
X521072Y36537D01*
X464717D01*
X343781Y157474D01*
X343422Y157713D01*
X343000Y157797D01*
X-27024D01*
X-27446Y157713D01*
X-27804Y157474D01*
X-29879Y155399D01*
X-42677D01*
Y156201D01*
X-44488D01*
Y158760D01*
X-42677D01*
Y159491D01*
X-29421D01*
X-28999Y159575D01*
X-28641Y159814D01*
X-28240Y160215D01*
X-27698Y160049D01*
X-27508Y159591D01*
X-27010Y159092D01*
X-26359Y158823D01*
X-25654D01*
X-25003Y159092D01*
X-24605Y159491D01*
X354189D01*
X467217Y46464D01*
X467575Y46224D01*
X467997Y46140D01*
X530709D01*
X531131Y46224D01*
X531489Y46464D01*
X531489Y46464D01*
X533845Y48819D01*
X537008D01*
Y53543D01*
X532283D01*
Y50380D01*
X531209Y49305D01*
X530709Y49512D01*
Y53543D01*
X525984D01*
Y52385D01*
X524353D01*
Y52628D01*
X524266Y53062D01*
X524020Y53430D01*
X523653Y53676D01*
X523218Y53762D01*
X521900D01*
X521466Y53676D01*
X521098Y53430D01*
X520852Y53062D01*
X520766Y52628D01*
Y49734D01*
X520852Y49300D01*
X521098Y48932D01*
X521224Y48848D01*
X521072Y48348D01*
X468454D01*
X459351Y57451D01*
X459558Y57951D01*
X530709D01*
X531131Y58035D01*
X531489Y58275D01*
X533845Y60630D01*
X537008D01*
Y65354D01*
X532283D01*
Y62191D01*
X531209Y61116D01*
X530709Y61323D01*
Y65354D01*
X525984D01*
Y64196D01*
X524353D01*
Y64439D01*
X524266Y64873D01*
X524020Y65241D01*
X523653Y65487D01*
X523218Y65573D01*
X521900D01*
X521466Y65487D01*
X521098Y65241D01*
X520852Y64873D01*
X520766Y64439D01*
Y61545D01*
X520852Y61111D01*
X521098Y60743D01*
X521224Y60659D01*
X521072Y60159D01*
X459477D01*
X355864Y163773D01*
X355506Y164012D01*
X355083Y164096D01*
X-27024D01*
X-27446Y164012D01*
X-27804Y163773D01*
X-29879Y161698D01*
X-42677D01*
Y162500D01*
X-44488D01*
Y165059D01*
X-42677D01*
Y165790D01*
X-29421D01*
X-28999Y165874D01*
X-28641Y166113D01*
X-28240Y166514D01*
X-27698Y166349D01*
X-27508Y165890D01*
X-27010Y165392D01*
X-26359Y165122D01*
X-25654D01*
X-25003Y165392D01*
X-24605Y165790D01*
X369618D01*
X465322Y70086D01*
X465681Y69846D01*
X466103Y69762D01*
X531496D01*
X531918Y69846D01*
X532277Y70086D01*
X534632Y72441D01*
X537795D01*
Y77165D01*
X533071D01*
Y74002D01*
X531996Y72927D01*
X531496Y73134D01*
Y77165D01*
X526772D01*
Y76007D01*
X524353D01*
Y76250D01*
X524266Y76684D01*
X524020Y77052D01*
X523653Y77298D01*
X523218Y77384D01*
X521900D01*
X521466Y77298D01*
X521098Y77052D01*
X520852Y76684D01*
X520766Y76250D01*
Y73356D01*
X520852Y72922D01*
X521098Y72554D01*
X521224Y72470D01*
X521072Y71970D01*
X466560D01*
X457457Y81073D01*
X457664Y81573D01*
X531496D01*
X531918Y81657D01*
X532277Y81897D01*
X534632Y84252D01*
X537795D01*
Y88976D01*
X533071D01*
Y85813D01*
X531996Y84738D01*
X531496Y84945D01*
Y88976D01*
X526772D01*
Y87818D01*
X524353D01*
Y88061D01*
X524266Y88495D01*
X524020Y88863D01*
X523653Y89109D01*
X523218Y89195D01*
X521900D01*
X521466Y89109D01*
X521098Y88863D01*
X520852Y88495D01*
X520766Y88061D01*
Y85167D01*
X520852Y84733D01*
X521098Y84365D01*
X521224Y84281D01*
X521072Y83781D01*
X457583D01*
X371292Y170072D01*
X370934Y170311D01*
X370512Y170395D01*
X-27024D01*
X-27446Y170311D01*
X-27804Y170072D01*
X-29879Y167998D01*
X-42677D01*
Y168799D01*
X-44488D01*
Y171358D01*
X-42677D01*
Y172089D01*
X-29421D01*
X-28999Y172173D01*
X-28641Y172412D01*
X-28240Y172813D01*
X-27698Y172648D01*
X-27508Y172189D01*
X-27010Y171691D01*
X-26359Y171421D01*
X-25654D01*
X-25003Y171691D01*
X-24605Y172089D01*
X382965D01*
X461346Y93708D01*
X461704Y93468D01*
X462127Y93384D01*
X531496D01*
X531918Y93468D01*
X532277Y93708D01*
X534632Y96063D01*
X537795D01*
Y100787D01*
X533071D01*
Y97624D01*
X531996Y96549D01*
X531496Y96756D01*
Y100787D01*
X526772D01*
Y99629D01*
X524353D01*
Y99872D01*
X524266Y100306D01*
X524020Y100674D01*
X523653Y100920D01*
X523218Y101006D01*
X521900D01*
X521466Y100920D01*
X521098Y100674D01*
X520852Y100306D01*
X520766Y99872D01*
Y96978D01*
X520852Y96544D01*
X521098Y96176D01*
X521224Y96092D01*
X521072Y95592D01*
X462584D01*
X453481Y104695D01*
X453688Y105195D01*
X530709D01*
X531131Y105279D01*
X531489Y105519D01*
X533845Y107874D01*
X537008D01*
Y112598D01*
X532283D01*
Y109435D01*
X531209Y108360D01*
X530709Y108567D01*
Y112598D01*
X525984D01*
Y111441D01*
X524353D01*
Y111683D01*
X524266Y112117D01*
X524020Y112485D01*
X523653Y112731D01*
X523218Y112817D01*
X521900D01*
X521466Y112731D01*
X521098Y112485D01*
X520852Y112117D01*
X520766Y111683D01*
Y108789D01*
X520852Y108355D01*
X521098Y107987D01*
X521224Y107903D01*
X521072Y107403D01*
X453607D01*
X384639Y176371D01*
X384281Y176610D01*
X383858Y176694D01*
X-27024D01*
X-27446Y176610D01*
X-27804Y176371D01*
X-29879Y174297D01*
X-42677D01*
Y175098D01*
X-44488D01*
Y177658D01*
X-42677D01*
Y178388D01*
X-29421D01*
X-28999Y178472D01*
X-28641Y178712D01*
X-28240Y179113D01*
X-27698Y178947D01*
X-27508Y178489D01*
X-27010Y177990D01*
X-26359Y177721D01*
X-25654D01*
X-25003Y177990D01*
X-24605Y178388D01*
X398213D01*
X459271Y117330D01*
X459629Y117090D01*
X460052Y117006D01*
X530709D01*
X531131Y117090D01*
X531489Y117330D01*
X533845Y119685D01*
X537008D01*
Y124409D01*
X532283D01*
Y121246D01*
X531209Y120171D01*
X530709Y120378D01*
Y124409D01*
X525984D01*
Y123251D01*
X524353D01*
Y123494D01*
X524266Y123928D01*
X524020Y124296D01*
X523653Y124542D01*
X523218Y124628D01*
X521900D01*
X521466Y124542D01*
X521098Y124296D01*
X520852Y123928D01*
X520766Y123494D01*
Y120600D01*
X520852Y120166D01*
X521098Y119799D01*
X521224Y119714D01*
X521072Y119214D01*
X460509D01*
X399450Y180273D01*
X399431Y180286D01*
X399582Y180786D01*
X412548D01*
X464193Y129141D01*
X464551Y128901D01*
X464973Y128817D01*
X530709D01*
X531131Y128901D01*
X531489Y129141D01*
X533845Y131496D01*
X537008D01*
Y136221D01*
X532283D01*
Y133057D01*
X531209Y131982D01*
X530709Y132190D01*
Y136221D01*
X525984D01*
Y135063D01*
X524353D01*
Y135305D01*
X524266Y135739D01*
X524020Y136107D01*
X523653Y136353D01*
X523218Y136439D01*
X521900D01*
X521466Y136353D01*
X521098Y136107D01*
X520852Y135739D01*
X520766Y135305D01*
Y132411D01*
X520852Y131977D01*
X521098Y131610D01*
X521224Y131525D01*
X521072Y131025D01*
X465431D01*
X413785Y182670D01*
X413427Y182910D01*
X413005Y182994D01*
X-27024D01*
X-27446Y182910D01*
X-27804Y182670D01*
X-29879Y180596D01*
X-42677D01*
Y181398D01*
X-44488D01*
Y183788D01*
X-37953D01*
X-37886Y183801D01*
X-37819Y183792D01*
X-37203Y183832D01*
X-37009Y183884D01*
X-36808Y183898D01*
X-35617Y184217D01*
X-35378Y184335D01*
X-35125Y184421D01*
X-34057Y185037D01*
X-33856Y185213D01*
X-33635Y185361D01*
X-32763Y186233D01*
X-32614Y186455D01*
X-32439Y186656D01*
X-31822Y187724D01*
X-31736Y187976D01*
X-31618Y188215D01*
X-31299Y189407D01*
X-31282Y189673D01*
X-31230Y189935D01*
X-31230Y191168D01*
X-31282Y191429D01*
X-31299Y191696D01*
X-31618Y192887D01*
X-31736Y193126D01*
X-31822Y193379D01*
X-32439Y194447D01*
X-32615Y194647D01*
X-32763Y194869D01*
X-33635Y195741D01*
X-33857Y195889D01*
X-34057Y196065D01*
X-35125Y196682D01*
X-35378Y196768D01*
X-35415Y196786D01*
X-35298Y197286D01*
X-29421D01*
X-28999Y197370D01*
X-28641Y197609D01*
X-28240Y198010D01*
X-27698Y197845D01*
X-27508Y197386D01*
X-27010Y196888D01*
X-26359Y196618D01*
X-25654D01*
X-25003Y196888D01*
X-24605Y197286D01*
X407544D01*
X463878Y140952D01*
X464236Y140712D01*
X464659Y140628D01*
X530709D01*
X531131Y140712D01*
X531489Y140952D01*
X533845Y143307D01*
X537008D01*
Y148031D01*
X532283D01*
Y144868D01*
X531209Y143793D01*
X530709Y144000D01*
Y148031D01*
X525984D01*
Y146873D01*
X524353D01*
Y147116D01*
X524266Y147550D01*
X524020Y147918D01*
X523653Y148164D01*
X523218Y148250D01*
X521900D01*
X521466Y148164D01*
X521098Y147918D01*
X520852Y147550D01*
X520766Y147116D01*
Y144222D01*
X520852Y143789D01*
X521098Y143421D01*
X521224Y143336D01*
X521072Y142836D01*
X465116D01*
X456013Y151939D01*
X456220Y152439D01*
X530709D01*
X531131Y152524D01*
X531489Y152763D01*
X533845Y155118D01*
X537008D01*
Y159843D01*
X532283D01*
Y156679D01*
X531209Y155604D01*
X530709Y155812D01*
Y159843D01*
X525984D01*
Y158685D01*
X524353D01*
Y158927D01*
X524266Y159361D01*
X524020Y159729D01*
X523653Y159975D01*
X523218Y160061D01*
X521900D01*
X521466Y159975D01*
X521098Y159729D01*
X520852Y159361D01*
X520766Y158927D01*
Y156034D01*
X520852Y155599D01*
X521098Y155232D01*
X521224Y155147D01*
X521072Y154647D01*
X456139D01*
X409218Y201568D01*
X408860Y201807D01*
X408438Y201891D01*
X-27024D01*
X-27446Y201807D01*
X-27804Y201568D01*
X-29879Y199494D01*
X-42677D01*
Y200295D01*
X-44488D01*
Y202854D01*
X-42677D01*
Y203585D01*
X-29421D01*
X-28999Y203669D01*
X-28641Y203908D01*
X-28240Y204309D01*
X-27698Y204144D01*
X-27508Y203685D01*
X-27010Y203187D01*
X-26359Y202917D01*
X-25654D01*
X-25003Y203187D01*
X-24605Y203585D01*
X419599D01*
X458610Y164574D01*
X458968Y164334D01*
X459391Y164251D01*
X530709D01*
X531131Y164334D01*
X531489Y164574D01*
X533845Y166929D01*
X537008D01*
Y171653D01*
X532283D01*
Y168490D01*
X531209Y167415D01*
X530709Y167623D01*
Y171653D01*
X525984D01*
Y170496D01*
X524353D01*
Y170738D01*
X524266Y171172D01*
X524020Y171540D01*
X523653Y171786D01*
X523218Y171872D01*
X521900D01*
X521466Y171786D01*
X521098Y171540D01*
X520852Y171172D01*
X520766Y170738D01*
Y167844D01*
X520852Y167411D01*
X521098Y167043D01*
X521224Y166958D01*
X521072Y166458D01*
X459848D01*
X450745Y175561D01*
X450952Y176061D01*
X530709D01*
X531131Y176146D01*
X531489Y176385D01*
X533845Y178740D01*
X537008D01*
Y183465D01*
X532283D01*
Y180301D01*
X531209Y179227D01*
X530709Y179434D01*
Y183465D01*
X525984D01*
Y182307D01*
X524353D01*
Y182549D01*
X524266Y182983D01*
X524020Y183351D01*
X523653Y183597D01*
X523218Y183683D01*
X521900D01*
X521466Y183597D01*
X521098Y183351D01*
X520852Y182983D01*
X520766Y182549D01*
Y179656D01*
X520852Y179222D01*
X521098Y178854D01*
X521224Y178769D01*
X521072Y178269D01*
X450871D01*
X421273Y207867D01*
X420915Y208106D01*
X420493Y208190D01*
X-27024D01*
X-27446Y208106D01*
X-27804Y207867D01*
X-29879Y205793D01*
X-42677D01*
Y206594D01*
X-44488D01*
Y209154D01*
X-42677D01*
Y209884D01*
X-29421D01*
X-28999Y209968D01*
X-28641Y210208D01*
X-28240Y210609D01*
X-27698Y210443D01*
X-27508Y209985D01*
X-27010Y209486D01*
X-26359Y209217D01*
X-25654D01*
X-25003Y209486D01*
X-24605Y209884D01*
X434539D01*
X456228Y188196D01*
X456586Y187957D01*
X457009Y187873D01*
X530709D01*
X531131Y187957D01*
X531489Y188196D01*
X533845Y190551D01*
X537008D01*
Y195276D01*
X532283D01*
Y192112D01*
X531209Y191037D01*
X530709Y191245D01*
Y195276D01*
X525984D01*
Y194118D01*
X524353D01*
Y194360D01*
X524266Y194794D01*
X524020Y195162D01*
X523653Y195408D01*
X523218Y195494D01*
X521900D01*
X521466Y195408D01*
X521098Y195162D01*
X520852Y194794D01*
X520766Y194360D01*
Y191466D01*
X520852Y191033D01*
X521098Y190665D01*
X521224Y190580D01*
X521072Y190080D01*
X457466D01*
X448362Y199183D01*
X448570Y199683D01*
X530709D01*
X531131Y199768D01*
X531489Y200007D01*
X533845Y202362D01*
X537008D01*
Y207087D01*
X532283D01*
Y203923D01*
X531209Y202849D01*
X530709Y203056D01*
Y207087D01*
X525984D01*
Y205929D01*
X524353D01*
Y206171D01*
X524266Y206605D01*
X524020Y206973D01*
X523653Y207219D01*
X523218Y207305D01*
X521900D01*
X521466Y207219D01*
X521098Y206973D01*
X520852Y206605D01*
X520766Y206171D01*
Y203278D01*
X520852Y202844D01*
X521098Y202476D01*
X521224Y202391D01*
X521072Y201891D01*
X448489D01*
X436214Y214166D01*
X435855Y214406D01*
X435433Y214490D01*
X-27024D01*
X-27446Y214406D01*
X-27804Y214166D01*
X-29879Y212092D01*
X-42677D01*
Y212894D01*
X-44488D01*
Y215453D01*
X-42677D01*
Y216183D01*
X-29421D01*
X-28999Y216268D01*
X-28641Y216507D01*
X-28240Y216908D01*
X-27698Y216742D01*
X-27508Y216284D01*
X-27010Y215786D01*
X-26359Y215516D01*
X-25654D01*
X-25003Y215786D01*
X-24605Y216183D01*
X450417D01*
X454782Y211818D01*
X455141Y211579D01*
X455563Y211494D01*
X530709D01*
X531131Y211579D01*
X531489Y211818D01*
X533845Y214173D01*
X537008D01*
Y218898D01*
X532283D01*
Y215734D01*
X531209Y214660D01*
X530709Y214867D01*
Y218898D01*
X525984D01*
Y217740D01*
X524353D01*
Y217982D01*
X524266Y218416D01*
X524020Y218784D01*
X523653Y219030D01*
X523218Y219116D01*
X521900D01*
X521466Y219030D01*
X521098Y218784D01*
X520852Y218416D01*
X520766Y217982D01*
Y215089D01*
X520852Y214655D01*
X521098Y214287D01*
X521224Y214202D01*
X521072Y213702D01*
X456020D01*
X451655Y218068D01*
X451407Y218233D01*
X451370Y218650D01*
X451401Y218793D01*
X451568Y218904D01*
X455969Y223306D01*
X530709D01*
X531131Y223390D01*
X531489Y223629D01*
X533845Y225984D01*
X537008D01*
Y230709D01*
X532283D01*
Y227545D01*
X531209Y226471D01*
X530709Y226678D01*
Y230709D01*
X525984D01*
Y229551D01*
X524353D01*
Y229793D01*
X524266Y230227D01*
X524020Y230595D01*
X523653Y230841D01*
X523218Y230927D01*
X521900D01*
X521466Y230841D01*
X521098Y230595D01*
X520852Y230227D01*
X520766Y229793D01*
Y226900D01*
X520852Y226466D01*
X521098Y226098D01*
X521224Y226013D01*
X521072Y225513D01*
X455512D01*
X455089Y225429D01*
X454731Y225190D01*
X450330Y220789D01*
X-27024D01*
X-27446Y220705D01*
X-27804Y220466D01*
X-29879Y218391D01*
X-42677D01*
Y219193D01*
X-44488D01*
Y221752D01*
X-42677D01*
Y222483D01*
X-29421D01*
X-28999Y222567D01*
X-28641Y222806D01*
X-28240Y223207D01*
X-27698Y223042D01*
X-27508Y222583D01*
X-27010Y222085D01*
X-26359Y221815D01*
X-25654D01*
X-25003Y222085D01*
X-24605Y222483D01*
X447681D01*
X448103Y222567D01*
X448461Y222806D01*
X460772Y235117D01*
X530709D01*
X531131Y235201D01*
X531489Y235440D01*
X533845Y237795D01*
X537008D01*
Y242520D01*
X532283D01*
Y239356D01*
X531209Y238282D01*
X530709Y238489D01*
Y242520D01*
X525984D01*
Y241362D01*
X524353D01*
Y241604D01*
X524266Y242038D01*
X524020Y242406D01*
X523653Y242652D01*
X523218Y242738D01*
X521900D01*
X521466Y242652D01*
X521098Y242406D01*
X520852Y242038D01*
X520766Y241604D01*
Y238711D01*
X520852Y238277D01*
X521098Y237909D01*
X521224Y237824D01*
X521072Y237324D01*
X460852D01*
X460645Y237824D01*
X469749Y246928D01*
X530709D01*
X531131Y247012D01*
X531489Y247251D01*
X533845Y249606D01*
X537008D01*
Y254331D01*
X532283D01*
Y251167D01*
X531209Y250093D01*
X530709Y250300D01*
Y254331D01*
X525984D01*
Y253173D01*
X524353D01*
Y253415D01*
X524266Y253849D01*
X524020Y254217D01*
X523653Y254463D01*
X523218Y254549D01*
X521900D01*
X521466Y254463D01*
X521098Y254217D01*
X520852Y253849D01*
X520766Y253415D01*
Y250522D01*
X520852Y250088D01*
X521098Y249720D01*
X521224Y249635D01*
X521072Y249135D01*
X469291D01*
X468869Y249051D01*
X468511Y248812D01*
X446787Y227088D01*
X-27024D01*
X-27446Y227004D01*
X-27804Y226765D01*
X-29879Y224691D01*
X-42677D01*
Y225492D01*
X-44488D01*
Y228051D01*
X-42677D01*
Y228782D01*
X-29421D01*
X-28999Y228866D01*
X-28641Y229105D01*
X-28240Y229506D01*
X-27698Y229341D01*
X-27508Y228882D01*
X-27010Y228384D01*
X-26359Y228114D01*
X-25654D01*
X-25003Y228384D01*
X-24605Y228782D01*
X436046D01*
X436468Y228866D01*
X436827Y229105D01*
X466460Y258739D01*
X530709D01*
X531131Y258823D01*
X531489Y259062D01*
X533845Y261417D01*
X537008D01*
Y266142D01*
X532283D01*
Y262979D01*
X531209Y261904D01*
X530709Y262111D01*
Y266142D01*
X525984D01*
Y264984D01*
X524353D01*
Y265226D01*
X524266Y265660D01*
X524020Y266028D01*
X523653Y266274D01*
X523218Y266360D01*
X521900D01*
X521466Y266274D01*
X521098Y266028D01*
X520852Y265660D01*
X520766Y265226D01*
Y262333D01*
X520852Y261899D01*
X521098Y261531D01*
X521224Y261446D01*
X521072Y260946D01*
X466541D01*
X466333Y261446D01*
X475437Y270550D01*
X530709D01*
X531131Y270634D01*
X531489Y270873D01*
X533845Y273228D01*
X537008D01*
Y277953D01*
X532283D01*
Y274790D01*
X531209Y273715D01*
X530709Y273922D01*
Y277953D01*
X525984D01*
Y276795D01*
X524353D01*
Y277037D01*
X524266Y277471D01*
X524020Y277839D01*
X523653Y278085D01*
X523218Y278171D01*
X521900D01*
X521466Y278085D01*
X521098Y277839D01*
X520852Y277471D01*
X520766Y277037D01*
Y274144D01*
X520852Y273710D01*
X521098Y273342D01*
X521224Y273257D01*
X521072Y272757D01*
X474980D01*
X474557Y272673D01*
X474199Y272434D01*
X435152Y233387D01*
X-27024D01*
X-27446Y233303D01*
X-27804Y233064D01*
X-29879Y230990D01*
X-42677D01*
Y231791D01*
X-44488D01*
Y234350D01*
X-42677D01*
Y235081D01*
X-29421D01*
X-28999Y235165D01*
X-28641Y235404D01*
X-28240Y235805D01*
X-27698Y235640D01*
X-27508Y235181D01*
X-27010Y234683D01*
X-26359Y234413D01*
X-25654D01*
X-25003Y234683D01*
X-24605Y235081D01*
X411932D01*
X412354Y235165D01*
X412712Y235404D01*
X459668Y282361D01*
X530709D01*
X531131Y282445D01*
X531489Y282684D01*
X533845Y285039D01*
X537008D01*
Y289764D01*
X532283D01*
Y286600D01*
X531209Y285526D01*
X530709Y285733D01*
Y289764D01*
X525984D01*
Y288606D01*
X524353D01*
Y288848D01*
X524266Y289282D01*
X524020Y289650D01*
X523653Y289896D01*
X523218Y289982D01*
X521900D01*
X521466Y289896D01*
X521098Y289650D01*
X520852Y289282D01*
X520766Y288848D01*
Y285955D01*
X520852Y285521D01*
X521098Y285153D01*
X521224Y285068D01*
X521072Y284568D01*
X459749D01*
X459542Y285068D01*
X468645Y294172D01*
X530709D01*
X531131Y294256D01*
X531489Y294495D01*
X533845Y296850D01*
X537008D01*
Y301575D01*
X532283D01*
Y298411D01*
X531209Y297337D01*
X530709Y297544D01*
Y301575D01*
X525984D01*
Y300417D01*
X524353D01*
Y300659D01*
X524266Y301093D01*
X524020Y301461D01*
X523653Y301707D01*
X523218Y301793D01*
X521900D01*
X521466Y301707D01*
X521098Y301461D01*
X520852Y301093D01*
X520766Y300659D01*
Y297766D01*
X520852Y297332D01*
X521098Y296964D01*
X521224Y296880D01*
X521072Y296379D01*
X468188D01*
X467766Y296295D01*
X467408Y296056D01*
X411038Y239687D01*
X-27024D01*
X-27446Y239602D01*
X-27804Y239363D01*
X-29879Y237289D01*
X-42677D01*
Y238090D01*
X-44488D01*
Y240650D01*
X-42677D01*
Y241380D01*
X-29421D01*
X-28999Y241464D01*
X-28641Y241704D01*
X-28240Y242105D01*
X-27698Y241939D01*
X-27508Y241481D01*
X-27010Y240982D01*
X-26359Y240713D01*
X-25654D01*
X-25003Y240982D01*
X-24605Y241380D01*
X395397D01*
X395819Y241464D01*
X396178Y241704D01*
X460457Y305983D01*
X530709D01*
X531131Y306067D01*
X531489Y306306D01*
X533845Y308661D01*
X537008D01*
Y313386D01*
X532283D01*
Y310223D01*
X531209Y309148D01*
X530709Y309355D01*
Y313386D01*
X525984D01*
Y312228D01*
X524353D01*
Y312471D01*
X524266Y312904D01*
X524020Y313272D01*
X523653Y313518D01*
X523218Y313604D01*
X521900D01*
X521466Y313518D01*
X521098Y313272D01*
X520852Y312904D01*
X520766Y312471D01*
Y309577D01*
X520852Y309143D01*
X521098Y308775D01*
X521224Y308691D01*
X521072Y308190D01*
X460537D01*
X460330Y308691D01*
X469434Y317794D01*
X530709D01*
X531131Y317878D01*
X531489Y318117D01*
X533845Y320472D01*
X537008D01*
Y325197D01*
X532283D01*
Y322034D01*
X531209Y320959D01*
X530709Y321166D01*
Y325197D01*
X525984D01*
Y324039D01*
X524353D01*
Y324282D01*
X524266Y324715D01*
X524020Y325083D01*
X523653Y325329D01*
X523218Y325415D01*
X521900D01*
X521466Y325329D01*
X521098Y325083D01*
X520852Y324715D01*
X520766Y324282D01*
Y321388D01*
X520852Y320954D01*
X521098Y320586D01*
X521224Y320501D01*
X521072Y320002D01*
X468976D01*
X468554Y319917D01*
X468196Y319678D01*
X394503Y245986D01*
X-27024D01*
X-27446Y245902D01*
X-27804Y245662D01*
X-29879Y243588D01*
X-42677D01*
Y244390D01*
X-44488D01*
Y246949D01*
X-42677D01*
Y247679D01*
X-29421D01*
X-28999Y247764D01*
X-28641Y248003D01*
X-28240Y248404D01*
X-27698Y248238D01*
X-27508Y247780D01*
X-27010Y247282D01*
X-26359Y247012D01*
X-25654D01*
X-25003Y247282D01*
X-24605Y247679D01*
X384846D01*
X385268Y247764D01*
X385626Y248003D01*
X467228Y329605D01*
X530709D01*
X531131Y329689D01*
X531489Y329928D01*
X533845Y332283D01*
X537008D01*
Y337008D01*
X532283D01*
Y333845D01*
X531209Y332770D01*
X530709Y332977D01*
Y337008D01*
X525984D01*
Y335850D01*
X524353D01*
Y336092D01*
X524266Y336526D01*
X524020Y336894D01*
X523653Y337140D01*
X523218Y337227D01*
X521900D01*
X521466Y337140D01*
X521098Y336894D01*
X520852Y336526D01*
X520766Y336092D01*
Y333199D01*
X520852Y332765D01*
X521098Y332397D01*
X521224Y332312D01*
X521072Y331813D01*
X467309D01*
X467102Y332312D01*
X476205Y341416D01*
X530709D01*
X531131Y341500D01*
X531489Y341739D01*
X533845Y344094D01*
X537008D01*
Y348819D01*
X532283D01*
Y345656D01*
X531209Y344581D01*
X530709Y344788D01*
Y348819D01*
X525984D01*
Y347661D01*
X524353D01*
Y347903D01*
X524266Y348338D01*
X524020Y348705D01*
X523653Y348951D01*
X523218Y349038D01*
X521900D01*
X521466Y348951D01*
X521098Y348705D01*
X520852Y348338D01*
X520766Y347903D01*
Y345010D01*
X520852Y344576D01*
X521098Y344208D01*
X521224Y344124D01*
X521072Y343624D01*
X475748D01*
X475325Y343540D01*
X474967Y343300D01*
X383952Y252285D01*
X-27024D01*
X-27446Y252201D01*
X-27804Y251962D01*
X-29879Y249887D01*
X-42677D01*
Y250689D01*
X-44488D01*
Y253248D01*
X-42677D01*
Y253979D01*
X-29421D01*
X-28999Y254063D01*
X-28641Y254302D01*
X-28240Y254703D01*
X-27698Y254538D01*
X-27508Y254079D01*
X-27010Y253581D01*
X-26359Y253311D01*
X-25654D01*
X-25003Y253581D01*
X-24605Y253979D01*
X373271D01*
X373693Y254063D01*
X374052Y254302D01*
X472976Y353227D01*
X530709D01*
X531131Y353311D01*
X531489Y353550D01*
X533845Y355906D01*
X537008D01*
Y360630D01*
X532283D01*
Y357467D01*
X531209Y356392D01*
X530709Y356599D01*
Y360630D01*
X525984D01*
Y359472D01*
X524353D01*
Y359715D01*
X524266Y360149D01*
X524020Y360516D01*
X523653Y360762D01*
X523218Y360849D01*
X521900D01*
X521466Y360762D01*
X521098Y360516D01*
X520852Y360149D01*
X520766Y359715D01*
Y356821D01*
X520852Y356387D01*
X521098Y356019D01*
X521224Y355935D01*
X521072Y355435D01*
X472939D01*
X472732Y355935D01*
X481835Y365038D01*
X530709D01*
X531131Y365122D01*
X531489Y365361D01*
X533845Y367717D01*
X537008D01*
Y372441D01*
X532283D01*
Y369278D01*
X531209Y368203D01*
X530709Y368410D01*
Y372441D01*
X525984D01*
Y371283D01*
X524353D01*
Y371526D01*
X524266Y371959D01*
X524020Y372327D01*
X523653Y372573D01*
X523218Y372660D01*
X521900D01*
X521466Y372573D01*
X521098Y372327D01*
X520852Y371959D01*
X520766Y371526D01*
Y368632D01*
X520852Y368198D01*
X521098Y367830D01*
X521224Y367746D01*
X521072Y367246D01*
X481378D01*
X480956Y367162D01*
X480597Y366922D01*
X372259Y258584D01*
X-27024D01*
X-27446Y258500D01*
X-27804Y258261D01*
X-29879Y256187D01*
X-42677D01*
Y256988D01*
X-44488D01*
Y259547D01*
X-42677D01*
Y259576D01*
X-34331D01*
X-34329Y259575D01*
X-33624D01*
X-33622Y259576D01*
X7996D01*
X8687Y259713D01*
X9273Y260104D01*
X42988Y293819D01*
X48622D01*
Y307756D01*
X40703D01*
X40495Y308256D01*
X42988Y310748D01*
X48622D01*
Y324685D01*
X40624D01*
X40405Y325173D01*
X42909Y327677D01*
X48622D01*
Y341614D01*
X40433D01*
Y330311D01*
X34156Y324033D01*
X33764Y323447D01*
X33627Y322756D01*
Y316890D01*
X-7477Y275787D01*
X-42677D01*
Y275886D01*
X-44488D01*
Y282311D01*
X-38739D01*
X-38689Y282321D01*
X-38639Y282314D01*
X-38253Y282333D01*
X-38107Y282369D01*
X-37955Y282369D01*
X-37198Y282520D01*
X-37013Y282597D01*
X-36816Y282636D01*
X-36103Y282931D01*
X-35936Y283043D01*
X-35750Y283120D01*
X-35109Y283549D01*
X-34967Y283691D01*
X-34800Y283802D01*
X-34254Y284348D01*
X-34143Y284515D01*
X-34001Y284657D01*
X-33572Y285299D01*
X-33495Y285484D01*
X-33383Y285651D01*
X-33088Y286364D01*
X-33049Y286561D01*
X-32972Y286747D01*
X-32822Y287504D01*
X-32822Y287655D01*
X-32785Y287802D01*
X-32766Y288188D01*
X-32773Y288238D01*
X-32763Y288287D01*
X-32763Y300028D01*
X-29834Y300028D01*
X-29834Y298130D01*
X-29825Y298080D01*
X-29832Y298030D01*
X-29813Y297644D01*
X-29776Y297497D01*
Y297346D01*
X-29626Y296589D01*
X-29549Y296404D01*
X-29510Y296207D01*
X-29214Y295494D01*
X-29103Y295327D01*
X-29026Y295141D01*
X-28597Y294499D01*
X-28455Y294357D01*
X-28343Y294190D01*
X-27798Y293645D01*
X-27631Y293533D01*
X-27489Y293391D01*
X-26847Y292962D01*
X-26662Y292885D01*
X-26495Y292774D01*
X-25782Y292478D01*
X-25585Y292439D01*
X-25399Y292362D01*
X-24642Y292212D01*
X-24491D01*
X-24344Y292175D01*
X-23958Y292156D01*
X-23908Y292164D01*
X-23858Y292154D01*
X-0D01*
X780Y292309D01*
X1442Y292751D01*
X1884Y293413D01*
X2039Y294193D01*
X2039Y381890D01*
X2039Y382530D01*
X2206Y383800D01*
X2538Y385038D01*
X3028Y386221D01*
X3669Y387330D01*
X4448Y388347D01*
X5354Y389252D01*
X6370Y390032D01*
X7480Y390673D01*
X8663Y391163D01*
X9900Y391494D01*
X11170Y391662D01*
X544503D01*
X545773Y391494D01*
D02*
G37*
%LPC*%
G36*
X67441Y341614D02*
X59252D01*
Y327677D01*
X67441D01*
Y333441D01*
X84941D01*
Y331988D01*
X89559D01*
X89862Y331988D01*
X90362Y331988D01*
X94980D01*
Y333441D01*
X99606D01*
Y332283D01*
X104331D01*
Y337008D01*
X99606D01*
Y335850D01*
X94980D01*
Y337303D01*
X90362D01*
X90059Y337303D01*
X89559Y337303D01*
X84941D01*
Y335850D01*
X67441D01*
Y341614D01*
D02*
G37*
G36*
Y324685D02*
X59252D01*
Y310748D01*
X67441D01*
Y324685D01*
D02*
G37*
G36*
X6447Y115967D02*
X5128D01*
X4694Y115880D01*
X4326Y115635D01*
X4080Y115267D01*
X3994Y114833D01*
Y114590D01*
X2089D01*
X1791Y114888D01*
X1140Y115157D01*
X435D01*
X-216Y114888D01*
X-715Y114389D01*
X-984Y113738D01*
Y113033D01*
X-715Y112382D01*
X-216Y111884D01*
X435Y111614D01*
X1140D01*
X1791Y111884D01*
X2089Y112182D01*
X3994D01*
Y111939D01*
X4080Y111505D01*
X4326Y111137D01*
X4694Y110891D01*
X5128Y110805D01*
X6447D01*
X6881Y110891D01*
X7249Y111137D01*
X7495Y111505D01*
X7581Y111939D01*
Y114833D01*
X7495Y115267D01*
X7249Y115635D01*
X6881Y115880D01*
X6447Y115967D01*
D02*
G37*
%LPD*%
D15*
X68493Y138965D02*
Y138976D01*
Y138583D02*
Y138965D01*
X71665Y142913D02*
X341732D01*
X30709D02*
X71665D01*
X68110Y139359D02*
X71665Y142913D01*
X68110Y138965D02*
Y139359D01*
X71665Y142913D02*
X72835D01*
X341732D02*
X466929Y17717D01*
X63346Y300787D02*
X401181D01*
X477165Y376772D02*
X544488D01*
X401181Y300787D02*
X477165Y376772D01*
X80118Y117946D02*
Y133662D01*
X466929Y17717D02*
X545276Y17717D01*
X551181Y23622D01*
Y370079D01*
X544488Y376772D02*
X551181Y370079D01*
X522559Y27559D02*
X528346D01*
X522559Y39370D02*
X528346D01*
X522559Y51181D02*
X528346D01*
X522559Y62992D02*
X528346D01*
X522559Y74803D02*
X528346D01*
X522559Y86614D02*
X528346D01*
X522559Y98425D02*
X528346D01*
X522559Y110236D02*
X528346D01*
X522559Y122047D02*
X528346D01*
X522559Y133858D02*
X528346D01*
X522559Y145669D02*
X528346D01*
X522559Y157480D02*
X528346D01*
X522559Y169291D02*
X528346D01*
X522559Y181102D02*
X528346D01*
X522559Y192913D02*
X528346D01*
X522559Y204724D02*
X528346D01*
X522559Y216535D02*
X528346D01*
X522559Y228346D02*
X528346D01*
X522559Y240158D02*
X528346D01*
X522559Y251969D02*
X528346D01*
X522559Y263779D02*
X528346D01*
X522559Y275590D02*
X528346D01*
X522559Y287402D02*
X528346D01*
X522559Y299213D02*
X528346D01*
X522559Y311024D02*
X528346D01*
X522559Y322835D02*
X528346D01*
X522559Y334646D02*
X528346D01*
X522559Y346457D02*
X528346D01*
X522559Y358268D02*
X528346D01*
X522559Y370079D02*
X528346D01*
X511811Y27559D02*
X516811D01*
X511811Y39370D02*
X516811D01*
X511811Y51181D02*
X516811D01*
X511811Y62992D02*
X516811D01*
X511811Y74803D02*
X516811D01*
X511811Y86614D02*
X516811D01*
X511811Y98425D02*
X516811D01*
X511811Y110236D02*
X516811D01*
X511811Y122047D02*
X516811D01*
X511811Y133858D02*
X516811D01*
X511811Y145669D02*
X516811D01*
X511811Y157480D02*
X516811D01*
X511811Y169291D02*
X516811D01*
X511811Y181102D02*
X516811D01*
X511811Y192913D02*
X516811D01*
X511811Y204724D02*
X516811D01*
X511811Y216535D02*
X516811D01*
X511811Y228346D02*
X516811D01*
X511811Y240158D02*
X516811D01*
X511811Y251969D02*
X516811D01*
X511811Y263779D02*
X516811D01*
X511811Y275590D02*
X516811D01*
X511811Y287402D02*
X516811D01*
X511811Y299213D02*
X516811D01*
X511811Y311024D02*
X516811D01*
X511811Y322835D02*
X516811D01*
X511811Y334646D02*
X516811D01*
X511811Y346457D02*
X516811D01*
X511811Y358268D02*
X516811D01*
X511811Y370079D02*
X516811D01*
X74814Y138965D02*
X80118Y133662D01*
X68493Y138965D02*
X74814D01*
X68110D02*
X68493D01*
X67815Y133091D02*
Y138670D01*
X68110Y138965D01*
X11535Y113386D02*
X28740D01*
X30709Y111417D01*
X787Y113386D02*
X5787D01*
X-48976Y113350D02*
X-9055D01*
X63386Y334646D02*
X87402D01*
X92520D02*
X101969D01*
X108268D02*
X112992D01*
X62587Y138976D02*
X62598Y138965D01*
X59449Y138976D02*
X62587D01*
X30709Y127953D02*
X34044D01*
X34055Y127942D01*
X33847Y135433D02*
X34055Y135225D01*
X30709Y135433D02*
X33847D01*
X33708Y120472D02*
X34055Y120820D01*
X30709Y120472D02*
X33708D01*
D16*
X473237Y23622D02*
X530709D01*
X-48976Y154295D02*
X-29421D01*
X530709Y47244D02*
X530709D01*
X467997D02*
X530709D01*
X354647Y160594D02*
X467997Y47244D01*
X530709D02*
X534646Y51181D01*
X-48976Y160594D02*
X-29421D01*
X-27024Y162992D02*
X355083D01*
X459020Y59055D01*
X-48976Y166894D02*
X-29421D01*
X-48976Y173193D02*
X-29421D01*
X-48976Y179492D02*
X-29421D01*
X-48976Y198390D02*
X-29421D01*
X420056Y204689D02*
X459391Y165354D01*
X-26006Y204689D02*
X420056D01*
X-48976D02*
X-29421D01*
X-48976Y210988D02*
X-29421D01*
X-26006Y217287D02*
X450874D01*
X455563Y212598D01*
X455512Y224410D02*
X530709D01*
X-27024Y219685D02*
X450787D01*
X455512Y224410D01*
X-48976Y217287D02*
X-29421D01*
X447681Y223587D02*
X460314Y236221D01*
X530709D01*
X534646Y240158D01*
X-48976Y223587D02*
X-29421D01*
X-48976Y229886D02*
X-29421D01*
X435609Y232283D02*
X474980Y271654D01*
X-27024Y232283D02*
X435609D01*
X459211Y283465D02*
X530709D01*
X411932Y236185D02*
X459211Y283465D01*
X-48976Y236185D02*
X-29421D01*
X468188Y295276D02*
X530709D01*
X395397Y242484D02*
X459999Y307087D01*
X530709D01*
X-48976Y242484D02*
X-29421D01*
X466771Y330709D02*
X530709D01*
X384846Y248783D02*
X466771Y330709D01*
X-26006Y248783D02*
X384846D01*
X-48976D02*
X-29421D01*
X-48976Y255083D02*
X-29421D01*
X530709Y366142D02*
X534646Y370079D01*
X481378Y366142D02*
X530709D01*
Y354331D02*
X534646Y358268D01*
X472519Y354331D02*
X530709D01*
Y342520D02*
X534646Y346457D01*
X475748Y342520D02*
X530709D01*
Y330709D02*
X534646Y334646D01*
X530709Y318898D02*
X534646Y322835D01*
X468976Y318898D02*
X530709D01*
Y307087D02*
X534646Y311024D01*
X530709Y295276D02*
X534646Y299213D01*
X530709Y283465D02*
X534646Y287402D01*
X530709Y271654D02*
X534646Y275590D01*
X474980Y271654D02*
X530709D01*
Y259842D02*
X534646Y263779D01*
X466003Y259842D02*
X530709D01*
Y248031D02*
X534646Y251969D01*
X469291Y248031D02*
X530709D01*
Y224410D02*
X534646Y228346D01*
X530709Y212598D02*
X534646Y216535D01*
X455563Y212598D02*
X530709D01*
Y200787D02*
X534646Y204724D01*
X448032Y200787D02*
X530709D01*
Y188976D02*
X534646Y192913D01*
X457009Y188976D02*
X530709D01*
Y177165D02*
X534646Y181102D01*
X450414Y177165D02*
X530709D01*
Y165354D02*
X534646Y169291D01*
X459391Y165354D02*
X530709D01*
Y153543D02*
X534646Y157480D01*
X455682Y153543D02*
X530709D01*
Y141732D02*
X534646Y145669D01*
X464659Y141732D02*
X530709D01*
Y129921D02*
X534646Y133858D01*
X464973Y129921D02*
X530709D01*
Y118110D02*
X534646Y122047D01*
X460052Y118110D02*
X530709D01*
Y106299D02*
X534646Y110236D01*
X453150Y106299D02*
X530709D01*
X531496Y94488D02*
X535433Y98425D01*
X462127Y94488D02*
X531496D01*
Y82677D02*
X535433Y86614D01*
X457126Y82677D02*
X531496D01*
Y70866D02*
X535433Y74803D01*
X466103Y70866D02*
X531496D01*
X530709Y59055D02*
X534646Y62992D01*
X459020Y59055D02*
X530709D01*
Y35433D02*
X534646Y39370D01*
X464260Y35433D02*
X530709D01*
Y23622D02*
X534646Y27559D01*
X420493Y207087D02*
X450414Y177165D01*
X408438Y200787D02*
X455682Y153543D01*
X408001Y198390D02*
X464659Y141732D01*
X413005Y181890D02*
X464973Y129921D01*
X370512Y169291D02*
X457126Y82677D01*
X370075Y166894D02*
X466103Y70866D01*
X343000Y156693D02*
X464260Y35433D01*
X342564Y154295D02*
X473237Y23622D01*
X-27024Y257480D02*
X372716D01*
X481378Y366142D01*
X373271Y255083D02*
X472519Y354331D01*
X384409Y251181D02*
X475748Y342520D01*
X394961Y244882D02*
X468976Y318898D01*
X411495Y238583D02*
X468188Y295276D01*
X-38618Y129098D02*
X-36220Y131496D01*
X40945D01*
X41732Y130709D02*
X50268D01*
X40945Y131496D02*
X41732Y130709D01*
X50760Y131201D02*
X54572D01*
X50268Y130709D02*
X50760Y131201D01*
X54572D02*
X54670Y131102D01*
X58130D01*
X26118Y117976D02*
X29528Y114567D01*
X62618D02*
X66142Y118091D01*
X29528Y114567D02*
X62618D01*
X26378Y120079D02*
X30709Y124409D01*
X-48547Y120079D02*
X26378D01*
X-48976Y119650D02*
X-48547Y120079D01*
X58130Y131102D02*
X66142Y123091D01*
X-27024Y156693D02*
X343000D01*
X-29421Y154295D02*
X-27024Y156693D01*
X-29421Y160594D02*
X-27024Y162992D01*
X-27024Y169291D02*
X370512D01*
X-29421Y166894D02*
X-27024Y169291D01*
X-27024Y175591D02*
X383858D01*
X-29421Y173193D02*
X-27024Y175591D01*
X383858D02*
X453150Y106299D01*
X-29421Y179492D02*
X-27024Y181890D01*
X413005D01*
X-29421Y198390D02*
X-27024Y200787D01*
X408438D01*
X-29421Y204689D02*
X-27024Y207087D01*
X420493D01*
X-29421Y210988D02*
X-27024Y213386D01*
X435433D02*
X448032Y200787D01*
X-27024Y213386D02*
X435433D01*
X-29421Y217287D02*
X-27024Y219685D01*
X447244Y225984D02*
X469291Y248031D01*
X-29421Y223587D02*
X-27024Y225984D01*
X447244D01*
X-29421Y229886D02*
X-27024Y232283D01*
X-29421Y236185D02*
X-27024Y238583D01*
X411495D01*
X-27024Y244882D02*
X394961D01*
X-29421Y242484D02*
X-27024Y244882D01*
X-29421Y248783D02*
X-27024Y251181D01*
X384409D01*
X-29421Y255083D02*
X-27024Y257480D01*
X-27559Y117976D02*
X26118D01*
X30709Y124409D02*
X35838D01*
X39173Y121016D02*
X40551Y122394D01*
X40748D02*
X41444Y123091D01*
X39173Y120820D02*
Y121016D01*
X40551Y122394D02*
X40748D01*
X41444Y123091D02*
X46358D01*
X46890Y123622D01*
X50000D01*
X51968Y125591D02*
Y129134D01*
X50000Y123622D02*
X51968Y125591D01*
X51575Y133465D02*
X51968D01*
X-30709Y140157D02*
X44882D01*
X51575Y133465D01*
X-35433Y144882D02*
X-30709Y140157D01*
X-32283Y138583D02*
X36013D01*
X-38547Y144846D02*
X-32283Y138583D01*
X-48976Y144846D02*
X-38547D01*
X36013Y138583D02*
X39173Y135422D01*
X-48976Y129098D02*
X-38618D01*
X66142Y123091D02*
X67815D01*
X72733Y128091D02*
X74184Y129542D01*
Y129941D01*
X67815Y128091D02*
X72733D01*
X74122Y123091D02*
X75000Y123969D01*
X67815Y123091D02*
X74122D01*
X67815Y118091D02*
X74855D01*
X75000Y117946D01*
X66142Y118091D02*
X67815D01*
X35838Y124409D02*
X39173Y127745D01*
X39322Y128091D02*
X46358D01*
X39173Y127942D02*
X39322Y128091D01*
X39173Y127745D02*
Y127942D01*
X42551Y135225D02*
X44685Y133091D01*
X39173Y135225D02*
X42551D01*
X44685Y133091D02*
X46358D01*
X39173Y135225D02*
Y135422D01*
X383422Y173193D02*
X462127Y94488D01*
X-26006Y179492D02*
X398670D01*
X460052Y118110D01*
X-26006Y198390D02*
X408001D01*
X434997Y210988D02*
X457009Y188976D01*
X-26006Y210988D02*
X434997D01*
X436046Y229886D02*
X466003Y259842D01*
X-26006Y154295D02*
X342564D01*
X-26006Y160594D02*
X354647D01*
X-26006Y166894D02*
X370075D01*
X-26006Y173193D02*
X383422D01*
X-26006Y223587D02*
X447681D01*
X-26006Y229886D02*
X436046D01*
X-26006Y236185D02*
X411932D01*
X-26006Y242484D02*
X395397D01*
X-26006Y255083D02*
X373271D01*
D17*
X43040Y117409D02*
X45677D01*
X42332Y116702D02*
X43040Y117409D01*
X42070Y116702D02*
X42332D01*
X45677Y117409D02*
X46358Y118091D01*
D18*
X74184Y129941D02*
D03*
X80934D02*
D03*
D19*
X67815Y118091D02*
D03*
Y123091D02*
D03*
Y128091D02*
D03*
Y133091D02*
D03*
X46358Y118091D02*
D03*
Y123091D02*
D03*
Y128091D02*
D03*
Y133091D02*
D03*
D20*
X5787Y113386D02*
D03*
X11535D02*
D03*
X522559Y27559D02*
D03*
X516811D02*
D03*
X522559Y39370D02*
D03*
X516811D02*
D03*
X522559Y51181D02*
D03*
X516811D02*
D03*
X522559Y62992D02*
D03*
X516811D02*
D03*
X522559Y74803D02*
D03*
X516811D02*
D03*
X522559Y86614D02*
D03*
X516811D02*
D03*
X522559Y98425D02*
D03*
X516811D02*
D03*
X522559Y110236D02*
D03*
X516811D02*
D03*
X522559Y122047D02*
D03*
X516811D02*
D03*
X522559Y133858D02*
D03*
X516811D02*
D03*
X522559Y145669D02*
D03*
X516811D02*
D03*
X522559Y157480D02*
D03*
X516811D02*
D03*
X522559Y169291D02*
D03*
X516811D02*
D03*
X522559Y181102D02*
D03*
X516811D02*
D03*
X522559Y192913D02*
D03*
X516811D02*
D03*
X522559Y204724D02*
D03*
X516811D02*
D03*
X522559Y216535D02*
D03*
X516811D02*
D03*
X522559Y228346D02*
D03*
X516811D02*
D03*
X522559Y240158D02*
D03*
X516811D02*
D03*
X522559Y251969D02*
D03*
X516811D02*
D03*
X522559Y263779D02*
D03*
X516811D02*
D03*
X522559Y275590D02*
D03*
X516811D02*
D03*
X522559Y287402D02*
D03*
X516811D02*
D03*
X522559Y299213D02*
D03*
X516811D02*
D03*
X522559Y311024D02*
D03*
X516811D02*
D03*
X522559Y322835D02*
D03*
X516811D02*
D03*
X522559Y334646D02*
D03*
X516811D02*
D03*
X522559Y346457D02*
D03*
X516811D02*
D03*
X522559Y358268D02*
D03*
X516811D02*
D03*
X522559Y370079D02*
D03*
X516811D02*
D03*
D21*
X528346Y27559D02*
D03*
X534646D02*
D03*
X528346Y39370D02*
D03*
X534646D02*
D03*
X528346Y51181D02*
D03*
X534646D02*
D03*
X528346Y62992D02*
D03*
X534646D02*
D03*
X529134Y74803D02*
D03*
X535433D02*
D03*
X529134Y86614D02*
D03*
X535433D02*
D03*
X529134Y98425D02*
D03*
X535433D02*
D03*
X528346Y110236D02*
D03*
X534646D02*
D03*
X528346Y122047D02*
D03*
X534646D02*
D03*
X528346Y133858D02*
D03*
X534646D02*
D03*
X528346Y145669D02*
D03*
X534646D02*
D03*
X528346Y157480D02*
D03*
X534646D02*
D03*
X528346Y169291D02*
D03*
X534646D02*
D03*
X528346Y181102D02*
D03*
X534646D02*
D03*
X528346Y192913D02*
D03*
X534646D02*
D03*
X528346Y204724D02*
D03*
X534646D02*
D03*
X528346Y216535D02*
D03*
X534646D02*
D03*
X528346Y228346D02*
D03*
X534646D02*
D03*
X528346Y240158D02*
D03*
X534646D02*
D03*
X528346Y251969D02*
D03*
X534646D02*
D03*
X528346Y263779D02*
D03*
X534646D02*
D03*
X528346Y275590D02*
D03*
X534646D02*
D03*
X528346Y287402D02*
D03*
X534646D02*
D03*
X528346Y299213D02*
D03*
X534646D02*
D03*
X528346Y311024D02*
D03*
X534646D02*
D03*
X528346Y322835D02*
D03*
X534646D02*
D03*
X528346Y334646D02*
D03*
X534646D02*
D03*
X528346Y346457D02*
D03*
X534646D02*
D03*
X528346Y358268D02*
D03*
X534646D02*
D03*
X528346Y370079D02*
D03*
X534646D02*
D03*
X108268Y334646D02*
D03*
X101969D02*
D03*
D22*
X62598Y138965D02*
D03*
X68110D02*
D03*
D23*
X75000Y123969D02*
D03*
X80118D02*
D03*
X75000Y117946D02*
D03*
X80118D02*
D03*
X39173Y135225D02*
D03*
X34055D02*
D03*
X39173Y127942D02*
D03*
X34055D02*
D03*
X39173Y120820D02*
D03*
X34055D02*
D03*
X92520Y334646D02*
D03*
X87402D02*
D03*
D24*
X63346D02*
D03*
X44528D02*
D03*
X63346Y317717D02*
D03*
X44528D02*
D03*
X63346Y300787D02*
D03*
X44528D02*
D03*
D25*
X-48976Y280315D02*
D03*
Y277166D02*
D03*
Y274016D02*
D03*
Y270866D02*
D03*
Y267716D02*
D03*
Y264567D02*
D03*
Y261417D02*
D03*
Y258268D02*
D03*
Y255118D02*
D03*
Y251968D02*
D03*
Y248819D02*
D03*
Y245669D02*
D03*
Y242520D02*
D03*
Y239370D02*
D03*
Y236220D02*
D03*
Y233071D02*
D03*
Y229921D02*
D03*
Y226772D02*
D03*
Y223622D02*
D03*
Y220472D02*
D03*
Y217323D02*
D03*
Y214173D02*
D03*
Y211024D02*
D03*
Y207874D02*
D03*
Y204725D02*
D03*
Y201575D02*
D03*
Y198425D02*
D03*
Y182677D02*
D03*
Y179528D02*
D03*
Y176378D02*
D03*
Y173228D02*
D03*
Y170079D02*
D03*
Y166929D02*
D03*
Y163779D02*
D03*
Y160630D02*
D03*
Y157480D02*
D03*
Y154331D02*
D03*
Y151181D02*
D03*
Y148031D02*
D03*
Y144882D02*
D03*
Y141732D02*
D03*
Y138583D02*
D03*
Y135433D02*
D03*
Y132283D02*
D03*
Y129134D02*
D03*
Y125984D02*
D03*
Y122835D02*
D03*
Y119685D02*
D03*
Y116535D02*
D03*
Y113386D02*
D03*
D37*
X-9055Y113386D02*
D03*
D38*
X-36636Y273980D02*
X-31518D01*
X-22857Y267681D02*
X-2634D01*
X-26006D02*
X-22857D01*
X-28762D02*
X-26006D01*
X-31518D02*
X-28762D01*
X-36636D02*
X-31518D01*
X-48976D02*
X-36636D01*
X-22857Y261382D02*
X7996D01*
X-26006D02*
X-22857D01*
X-28762D02*
X-26006D01*
X-31518D02*
X-28762D01*
X-36636D02*
X-31518D01*
X-48976D02*
X-36636D01*
X67815Y133091D02*
X67913D01*
X68110Y133287D01*
X-26006Y273980D02*
X-22857D01*
X-6728D01*
X-28762D02*
X-26006D01*
X-6728D02*
X35433Y316142D01*
X-31518Y273980D02*
X-28762D01*
X-48976D02*
X-36636D01*
X35433Y316142D02*
Y322756D01*
X42126Y329449D02*
X42205D01*
X35433Y322756D02*
X42126Y329449D01*
X42205D02*
X44528Y331772D01*
Y334646D01*
X-2634Y267681D02*
X44528Y314843D01*
Y317717D01*
X7996Y261382D02*
X44528Y297913D01*
Y300787D01*
D39*
X511811Y27559D02*
D03*
Y39370D02*
D03*
Y51181D02*
D03*
Y62992D02*
D03*
Y74803D02*
D03*
Y86614D02*
D03*
Y98425D02*
D03*
Y110236D02*
D03*
Y122047D02*
D03*
Y133858D02*
D03*
Y145669D02*
D03*
Y157480D02*
D03*
Y169291D02*
D03*
Y181102D02*
D03*
Y192913D02*
D03*
Y204724D02*
D03*
Y216535D02*
D03*
Y228346D02*
D03*
Y240158D02*
D03*
Y251969D02*
D03*
Y263779D02*
D03*
Y275590D02*
D03*
Y287402D02*
D03*
Y299213D02*
D03*
Y311024D02*
D03*
Y322835D02*
D03*
Y334646D02*
D03*
Y346457D02*
D03*
Y358268D02*
D03*
Y370079D02*
D03*
X30709Y111417D02*
D03*
X787Y113386D02*
D03*
X30709Y142913D02*
D03*
X-40551Y201575D02*
D03*
Y207874D02*
D03*
Y214173D02*
D03*
Y220472D02*
D03*
Y226772D02*
D03*
Y233071D02*
D03*
Y239370D02*
D03*
Y245669D02*
D03*
Y251969D02*
D03*
Y257874D02*
D03*
Y264567D02*
D03*
Y270866D02*
D03*
Y277165D02*
D03*
Y280315D02*
D03*
Y116535D02*
D03*
Y182677D02*
D03*
Y176378D02*
D03*
Y170079D02*
D03*
Y163779D02*
D03*
Y157480D02*
D03*
Y151181D02*
D03*
Y132283D02*
D03*
Y141339D02*
D03*
X59449Y138976D02*
D03*
X42070Y116702D02*
D03*
X30709Y127953D02*
D03*
Y135433D02*
D03*
Y120472D02*
D03*
X51968Y129134D02*
D03*
Y133465D02*
D03*
X-35433Y144882D02*
D03*
X-27559Y117976D02*
D03*
X-26006Y154295D02*
D03*
Y160594D02*
D03*
Y166894D02*
D03*
Y173193D02*
D03*
Y179492D02*
D03*
Y198390D02*
D03*
Y204689D02*
D03*
Y210988D02*
D03*
Y217287D02*
D03*
Y223587D02*
D03*
Y229886D02*
D03*
Y236185D02*
D03*
Y242484D02*
D03*
Y248783D02*
D03*
Y255083D02*
D03*
Y261382D02*
D03*
X-28762D02*
D03*
X-31518D02*
D03*
X-33977Y261346D02*
D03*
X-36636Y261382D02*
D03*
X-22857D02*
D03*
X-26006Y267681D02*
D03*
X-28762D02*
D03*
X-31518D02*
D03*
X-33977Y267646D02*
D03*
X-36636Y267681D02*
D03*
X-22857D02*
D03*
Y273980D02*
D03*
X-36636D02*
D03*
X-33977Y273945D02*
D03*
X-31518Y273980D02*
D03*
X-28762D02*
D03*
X-26006D02*
D03*
D40*
X112992Y334646D02*
D03*
M02*
