G04*
G04 #@! TF.GenerationSoftware,Altium Limited,Altium Designer,24.10.1 (45)*
G04*
G04 Layer_Color=8421504*
%FSLAX25Y25*%
%MOIN*%
G70*
G04*
G04 #@! TF.SameCoordinates,45E3FD76-ABA5-4EB6-B63B-188F6C73D423*
G04*
G04*
G04 #@! TF.FilePolarity,Positive*
G04*
G01*
G75*
%ADD18R,0.03200X0.04000*%
G04:AMPARAMS|DCode=19|XSize=23.62mil|YSize=57.09mil|CornerRadius=2.01mil|HoleSize=0mil|Usage=FLASHONLY|Rotation=90.000|XOffset=0mil|YOffset=0mil|HoleType=Round|Shape=RoundedRectangle|*
%AMROUNDEDRECTD19*
21,1,0.02362,0.05307,0,0,90.0*
21,1,0.01961,0.05709,0,0,90.0*
1,1,0.00402,0.02653,0.00980*
1,1,0.00402,0.02653,-0.00980*
1,1,0.00402,-0.02653,-0.00980*
1,1,0.00402,-0.02653,0.00980*
%
%ADD19ROUNDEDRECTD19*%
G04:AMPARAMS|DCode=20|XSize=19.68mil|YSize=35.43mil|CornerRadius=3.25mil|HoleSize=0mil|Usage=FLASHONLY|Rotation=180.000|XOffset=0mil|YOffset=0mil|HoleType=Round|Shape=RoundedRectangle|*
%AMROUNDEDRECTD20*
21,1,0.01968,0.02894,0,0,180.0*
21,1,0.01319,0.03543,0,0,180.0*
1,1,0.00650,-0.00659,0.01447*
1,1,0.00650,0.00659,0.01447*
1,1,0.00650,0.00659,-0.01447*
1,1,0.00650,-0.00659,-0.01447*
%
%ADD20ROUNDEDRECTD20*%
%ADD21R,0.03150X0.03150*%
%ADD22R,0.02756X0.03543*%
%ADD23R,0.03347X0.03740*%
%ADD24R,0.06614X0.12362*%
%ADD25R,0.11024X0.02165*%
G36*
X79934Y127942D02*
X79034D01*
X77034Y129941D01*
X79034Y131941D01*
X79934D01*
Y127942D01*
D02*
G37*
G36*
X75834Y129941D02*
X77834Y127942D01*
X74934D01*
Y129941D01*
Y131941D01*
X77834D01*
X75834Y129941D01*
D02*
G37*
D18*
X74184D02*
D03*
X80934D02*
D03*
D19*
X67815Y118091D02*
D03*
Y123091D02*
D03*
Y128091D02*
D03*
Y133091D02*
D03*
X46358Y118091D02*
D03*
Y123091D02*
D03*
Y128091D02*
D03*
Y133091D02*
D03*
D20*
X5787Y113386D02*
D03*
X11535D02*
D03*
X522559Y27559D02*
D03*
X516811D02*
D03*
X522559Y39370D02*
D03*
X516811D02*
D03*
X522559Y51181D02*
D03*
X516811D02*
D03*
X522559Y62992D02*
D03*
X516811D02*
D03*
X522559Y74803D02*
D03*
X516811D02*
D03*
X522559Y86614D02*
D03*
X516811D02*
D03*
X522559Y98425D02*
D03*
X516811D02*
D03*
X522559Y110236D02*
D03*
X516811D02*
D03*
X522559Y122047D02*
D03*
X516811D02*
D03*
X522559Y133858D02*
D03*
X516811D02*
D03*
X522559Y145669D02*
D03*
X516811D02*
D03*
X522559Y157480D02*
D03*
X516811D02*
D03*
X522559Y169291D02*
D03*
X516811D02*
D03*
X522559Y181102D02*
D03*
X516811D02*
D03*
X522559Y192913D02*
D03*
X516811D02*
D03*
X522559Y204724D02*
D03*
X516811D02*
D03*
X522559Y216535D02*
D03*
X516811D02*
D03*
X522559Y228346D02*
D03*
X516811D02*
D03*
X522559Y240158D02*
D03*
X516811D02*
D03*
X522559Y251969D02*
D03*
X516811D02*
D03*
X522559Y263779D02*
D03*
X516811D02*
D03*
X522559Y275590D02*
D03*
X516811D02*
D03*
X522559Y287402D02*
D03*
X516811D02*
D03*
X522559Y299213D02*
D03*
X516811D02*
D03*
X522559Y311024D02*
D03*
X516811D02*
D03*
X522559Y322835D02*
D03*
X516811D02*
D03*
X522559Y334646D02*
D03*
X516811D02*
D03*
X522559Y346457D02*
D03*
X516811D02*
D03*
X522559Y358268D02*
D03*
X516811D02*
D03*
X522559Y370079D02*
D03*
X516811D02*
D03*
D21*
X528346Y27559D02*
D03*
X534646D02*
D03*
X528346Y39370D02*
D03*
X534646D02*
D03*
X528346Y51181D02*
D03*
X534646D02*
D03*
X528346Y62992D02*
D03*
X534646D02*
D03*
X529134Y74803D02*
D03*
X535433D02*
D03*
X529134Y86614D02*
D03*
X535433D02*
D03*
X529134Y98425D02*
D03*
X535433D02*
D03*
X528346Y110236D02*
D03*
X534646D02*
D03*
X528346Y122047D02*
D03*
X534646D02*
D03*
X528346Y133858D02*
D03*
X534646D02*
D03*
X528346Y145669D02*
D03*
X534646D02*
D03*
X528346Y157480D02*
D03*
X534646D02*
D03*
X528346Y169291D02*
D03*
X534646D02*
D03*
X528346Y181102D02*
D03*
X534646D02*
D03*
X528346Y192913D02*
D03*
X534646D02*
D03*
X528346Y204724D02*
D03*
X534646D02*
D03*
X528346Y216535D02*
D03*
X534646D02*
D03*
X528346Y228346D02*
D03*
X534646D02*
D03*
X528346Y240158D02*
D03*
X534646D02*
D03*
X528346Y251969D02*
D03*
X534646D02*
D03*
X528346Y263779D02*
D03*
X534646D02*
D03*
X528346Y275590D02*
D03*
X534646D02*
D03*
X528346Y287402D02*
D03*
X534646D02*
D03*
X528346Y299213D02*
D03*
X534646D02*
D03*
X528346Y311024D02*
D03*
X534646D02*
D03*
X528346Y322835D02*
D03*
X534646D02*
D03*
X528346Y334646D02*
D03*
X534646D02*
D03*
X528346Y346457D02*
D03*
X534646D02*
D03*
X528346Y358268D02*
D03*
X534646D02*
D03*
X528346Y370079D02*
D03*
X534646D02*
D03*
X108268Y334646D02*
D03*
X101969D02*
D03*
D22*
X62598Y138965D02*
D03*
X68110D02*
D03*
D23*
X75000Y123969D02*
D03*
X80118D02*
D03*
X75000Y117946D02*
D03*
X80118D02*
D03*
X39173Y135225D02*
D03*
X34055D02*
D03*
X39173Y127942D02*
D03*
X34055D02*
D03*
X39173Y120820D02*
D03*
X34055D02*
D03*
X92520Y334646D02*
D03*
X87402D02*
D03*
D24*
X63346D02*
D03*
X44528D02*
D03*
X63346Y317717D02*
D03*
X44528D02*
D03*
X63346Y300787D02*
D03*
X44528D02*
D03*
D25*
X-48976Y280315D02*
D03*
Y277166D02*
D03*
Y274016D02*
D03*
Y270866D02*
D03*
Y267716D02*
D03*
Y264567D02*
D03*
Y261417D02*
D03*
Y258268D02*
D03*
Y255118D02*
D03*
Y251968D02*
D03*
Y248819D02*
D03*
Y245669D02*
D03*
Y242520D02*
D03*
Y239370D02*
D03*
Y236220D02*
D03*
Y233071D02*
D03*
Y229921D02*
D03*
Y226772D02*
D03*
Y223622D02*
D03*
Y220472D02*
D03*
Y217323D02*
D03*
Y214173D02*
D03*
Y211024D02*
D03*
Y207874D02*
D03*
Y204725D02*
D03*
Y201575D02*
D03*
Y198425D02*
D03*
Y182677D02*
D03*
Y179528D02*
D03*
Y176378D02*
D03*
Y173228D02*
D03*
Y170079D02*
D03*
Y166929D02*
D03*
Y163779D02*
D03*
Y160630D02*
D03*
Y157480D02*
D03*
Y154331D02*
D03*
Y151181D02*
D03*
Y148031D02*
D03*
Y144882D02*
D03*
Y141732D02*
D03*
Y138583D02*
D03*
Y135433D02*
D03*
Y132283D02*
D03*
Y129134D02*
D03*
Y125984D02*
D03*
Y122835D02*
D03*
Y119685D02*
D03*
Y116535D02*
D03*
Y113386D02*
D03*
M02*
