G04*
G04 #@! TF.GenerationSoftware,Altium Limited,Altium Designer,24.10.1 (45)*
G04*
G04 Layer_Physical_Order=2*
G04 Layer_Color=16711680*
%FSLAX25Y25*%
%MOIN*%
G70*
G04*
G04 #@! TF.SameCoordinates,45E3FD76-ABA5-4EB6-B63B-188F6C73D423*
G04*
G04*
G04 #@! TF.FilePolarity,Positive*
G04*
G01*
G75*
%ADD15C,0.00787*%
%ADD16C,0.00591*%
%ADD25R,0.11024X0.02165*%
%ADD38C,0.01968*%
%ADD39C,0.01968*%
%ADD40C,0.02362*%
G36*
X545773Y391494D02*
X547010Y391163D01*
X548193Y390673D01*
X549303Y390032D01*
X550319Y389252D01*
X551225Y388347D01*
X552005Y387330D01*
X552645Y386221D01*
X553135Y385038D01*
X553467Y383800D01*
X553634Y382530D01*
Y381890D01*
X553634Y11811D01*
X553634Y11170D01*
X553467Y9900D01*
X553135Y8663D01*
X552645Y7480D01*
X552005Y6370D01*
X551225Y5354D01*
X550319Y4448D01*
X549303Y3669D01*
X548194Y3028D01*
X547010Y2538D01*
X545773Y2206D01*
X544503Y2039D01*
X543862Y2039D01*
X11811Y2039D01*
X11170Y2039D01*
X9900Y2206D01*
X8663Y2538D01*
X7480Y3028D01*
X6370Y3669D01*
X5354Y4448D01*
X4448Y5354D01*
X3669Y6370D01*
X3028Y7480D01*
X2538Y8663D01*
X2206Y9900D01*
X2039Y11171D01*
X2039Y11811D01*
X2039Y99508D01*
X1884Y100288D01*
X1442Y100950D01*
X780Y101392D01*
X-0Y101547D01*
X-23858Y101547D01*
X-23908Y101537D01*
X-23958Y101544D01*
X-24344Y101525D01*
X-24491Y101489D01*
X-24642D01*
X-25399Y101338D01*
X-25585Y101261D01*
X-25782Y101222D01*
X-26495Y100927D01*
X-26662Y100815D01*
X-26847Y100738D01*
X-27489Y100310D01*
X-27631Y100168D01*
X-27798Y100056D01*
X-28343Y99510D01*
X-28455Y99343D01*
X-28597Y99201D01*
X-29026Y98560D01*
X-29103Y98374D01*
X-29214Y98207D01*
X-29510Y97494D01*
X-29549Y97297D01*
X-29626Y97111D01*
X-29776Y96355D01*
Y96203D01*
X-29813Y96057D01*
X-29832Y95671D01*
X-29825Y95621D01*
X-29834Y95571D01*
X-29835Y93673D01*
X-32763D01*
X-32764Y105414D01*
X-32774Y105464D01*
X-32766Y105514D01*
X-32785Y105900D01*
X-32822Y106046D01*
Y106197D01*
X-32972Y106954D01*
X-33049Y107140D01*
X-33088Y107337D01*
X-33384Y108050D01*
X-33495Y108217D01*
X-33572Y108402D01*
X-34001Y109044D01*
X-34143Y109186D01*
X-34255Y109353D01*
X-34800Y109899D01*
X-34967Y110010D01*
X-35109Y110152D01*
X-35751Y110581D01*
X-35936Y110658D01*
X-36103Y110769D01*
X-36816Y111065D01*
X-37013Y111104D01*
X-37199Y111181D01*
X-37956Y111331D01*
X-38107D01*
X-38254Y111368D01*
X-38640Y111387D01*
X-38690Y111380D01*
X-38740Y111390D01*
X-42230D01*
X-42677Y111516D01*
Y112182D01*
X-514D01*
X-216Y111884D01*
X435Y111614D01*
X1140D01*
X1791Y111884D01*
X2289Y112382D01*
X2559Y113033D01*
Y113738D01*
X2289Y114389D01*
X1791Y114888D01*
X1140Y115157D01*
X435D01*
X-216Y114888D01*
X-514Y114590D01*
X-42677D01*
Y115256D01*
X-44488D01*
Y117815D01*
X-42677D01*
Y120965D01*
Y124114D01*
Y127995D01*
X-39138D01*
X-29331Y118187D01*
Y117624D01*
X-29061Y116973D01*
X-28563Y116474D01*
X-27911Y116205D01*
X-27207D01*
X-26555Y116474D01*
X-26057Y116973D01*
X-25787Y117624D01*
Y118329D01*
X-26057Y118980D01*
X-26555Y119478D01*
X-27207Y119748D01*
X-27770D01*
X-37901Y129879D01*
X-38259Y130118D01*
X-38681Y130202D01*
X-42677D01*
Y131004D01*
X-44488D01*
Y133563D01*
X-42677D01*
Y136713D01*
Y140453D01*
X-44488D01*
Y143012D01*
X-42677D01*
Y143778D01*
X-36835D01*
X-36437Y143380D01*
X-35785Y143110D01*
X-35081D01*
X-34429Y143380D01*
X-33931Y143878D01*
X-33661Y144529D01*
Y145234D01*
X-33931Y145885D01*
X-34429Y146384D01*
X-35081Y146653D01*
X-35785D01*
X-36437Y146384D01*
X-36835Y145986D01*
X-42677D01*
Y149901D01*
X-44488D01*
Y152461D01*
X-42677D01*
Y153191D01*
X-27408D01*
X-27010Y152793D01*
X-26359Y152524D01*
X-25654D01*
X-25003Y152793D01*
X-24504Y153292D01*
X-24235Y153943D01*
Y154648D01*
X-24504Y155299D01*
X-25003Y155797D01*
X-25654Y156067D01*
X-26359D01*
X-27010Y155797D01*
X-27408Y155399D01*
X-42677D01*
Y156201D01*
X-44488D01*
Y158760D01*
X-42677D01*
Y159491D01*
X-27408D01*
X-27010Y159092D01*
X-26359Y158823D01*
X-25654D01*
X-25003Y159092D01*
X-24504Y159591D01*
X-24235Y160242D01*
Y160947D01*
X-24504Y161598D01*
X-25003Y162096D01*
X-25654Y162366D01*
X-26359D01*
X-27010Y162096D01*
X-27408Y161698D01*
X-42677D01*
Y162500D01*
X-44488D01*
Y165059D01*
X-42677D01*
Y165790D01*
X-27408D01*
X-27010Y165392D01*
X-26359Y165122D01*
X-25654D01*
X-25003Y165392D01*
X-24504Y165890D01*
X-24235Y166541D01*
Y167246D01*
X-24504Y167897D01*
X-25003Y168396D01*
X-25654Y168665D01*
X-26359D01*
X-27010Y168396D01*
X-27408Y167998D01*
X-42677D01*
Y168799D01*
X-44488D01*
Y171358D01*
X-42677D01*
Y172089D01*
X-27408D01*
X-27010Y171691D01*
X-26359Y171421D01*
X-25654D01*
X-25003Y171691D01*
X-24504Y172189D01*
X-24235Y172840D01*
Y173545D01*
X-24504Y174196D01*
X-25003Y174695D01*
X-25654Y174964D01*
X-26359D01*
X-27010Y174695D01*
X-27408Y174297D01*
X-42677D01*
Y175098D01*
X-44488D01*
Y177658D01*
X-42677D01*
Y178388D01*
X-27408D01*
X-27010Y177990D01*
X-26359Y177721D01*
X-25654D01*
X-25003Y177990D01*
X-24504Y178489D01*
X-24235Y179140D01*
Y179845D01*
X-24504Y180496D01*
X-25003Y180994D01*
X-25654Y181264D01*
X-26359D01*
X-27010Y180994D01*
X-27408Y180596D01*
X-42677D01*
Y181398D01*
X-44488D01*
Y183788D01*
X-37953D01*
X-37886Y183801D01*
X-37819Y183792D01*
X-37203Y183832D01*
X-37009Y183884D01*
X-36808Y183898D01*
X-35617Y184217D01*
X-35378Y184335D01*
X-35125Y184421D01*
X-34057Y185037D01*
X-33856Y185213D01*
X-33635Y185361D01*
X-32763Y186233D01*
X-32614Y186455D01*
X-32439Y186656D01*
X-31822Y187724D01*
X-31736Y187976D01*
X-31618Y188215D01*
X-31299Y189407D01*
X-31282Y189673D01*
X-31230Y189935D01*
X-31230Y191168D01*
X-31282Y191429D01*
X-31299Y191696D01*
X-31618Y192887D01*
X-31736Y193126D01*
X-31822Y193379D01*
X-32439Y194447D01*
X-32615Y194647D01*
X-32763Y194869D01*
X-33635Y195741D01*
X-33857Y195889D01*
X-34057Y196065D01*
X-35125Y196682D01*
X-35378Y196768D01*
X-35415Y196786D01*
X-35298Y197286D01*
X-27408D01*
X-27010Y196888D01*
X-26359Y196618D01*
X-25654D01*
X-25003Y196888D01*
X-24504Y197386D01*
X-24235Y198037D01*
Y198742D01*
X-24504Y199393D01*
X-25003Y199892D01*
X-25654Y200162D01*
X-26359D01*
X-27010Y199892D01*
X-27408Y199494D01*
X-42677D01*
Y200295D01*
X-44488D01*
Y202854D01*
X-42677D01*
Y203585D01*
X-27408D01*
X-27010Y203187D01*
X-26359Y202917D01*
X-25654D01*
X-25003Y203187D01*
X-24504Y203685D01*
X-24235Y204337D01*
Y205041D01*
X-24504Y205693D01*
X-25003Y206191D01*
X-25654Y206461D01*
X-26359D01*
X-27010Y206191D01*
X-27408Y205793D01*
X-42677D01*
Y206594D01*
X-44488D01*
Y209154D01*
X-42677D01*
Y209884D01*
X-27408D01*
X-27010Y209486D01*
X-26359Y209217D01*
X-25654D01*
X-25003Y209486D01*
X-24504Y209985D01*
X-24235Y210636D01*
Y211341D01*
X-24504Y211992D01*
X-25003Y212490D01*
X-25654Y212760D01*
X-26359D01*
X-27010Y212490D01*
X-27408Y212092D01*
X-42677D01*
Y212894D01*
X-44488D01*
Y215453D01*
X-42677D01*
Y216183D01*
X-27408D01*
X-27010Y215786D01*
X-26359Y215516D01*
X-25654D01*
X-25003Y215786D01*
X-24504Y216284D01*
X-24235Y216935D01*
Y217640D01*
X-24504Y218291D01*
X-25003Y218789D01*
X-25654Y219059D01*
X-26359D01*
X-27010Y218789D01*
X-27408Y218391D01*
X-42677D01*
Y219193D01*
X-44488D01*
Y221752D01*
X-42677D01*
Y222483D01*
X-27408D01*
X-27010Y222085D01*
X-26359Y221815D01*
X-25654D01*
X-25003Y222085D01*
X-24504Y222583D01*
X-24235Y223234D01*
Y223939D01*
X-24504Y224590D01*
X-25003Y225089D01*
X-25654Y225358D01*
X-26359D01*
X-27010Y225089D01*
X-27408Y224691D01*
X-42677D01*
Y225492D01*
X-44488D01*
Y228051D01*
X-42677D01*
Y228782D01*
X-27408D01*
X-27010Y228384D01*
X-26359Y228114D01*
X-25654D01*
X-25003Y228384D01*
X-24504Y228882D01*
X-24235Y229533D01*
Y230238D01*
X-24504Y230889D01*
X-25003Y231388D01*
X-25654Y231658D01*
X-26359D01*
X-27010Y231388D01*
X-27408Y230990D01*
X-42677D01*
Y231791D01*
X-44488D01*
Y234350D01*
X-42677D01*
Y235081D01*
X-27408D01*
X-27010Y234683D01*
X-26359Y234413D01*
X-25654D01*
X-25003Y234683D01*
X-24504Y235181D01*
X-24235Y235833D01*
Y236537D01*
X-24504Y237189D01*
X-25003Y237687D01*
X-25654Y237957D01*
X-26359D01*
X-27010Y237687D01*
X-27408Y237289D01*
X-42677D01*
Y238090D01*
X-44488D01*
Y240650D01*
X-42677D01*
Y241380D01*
X-27408D01*
X-27010Y240982D01*
X-26359Y240713D01*
X-25654D01*
X-25003Y240982D01*
X-24504Y241481D01*
X-24235Y242132D01*
Y242837D01*
X-24504Y243488D01*
X-25003Y243986D01*
X-25654Y244256D01*
X-26359D01*
X-27010Y243986D01*
X-27408Y243588D01*
X-42677D01*
Y244390D01*
X-44488D01*
Y246949D01*
X-42677D01*
Y247679D01*
X-27408D01*
X-27010Y247282D01*
X-26359Y247012D01*
X-25654D01*
X-25003Y247282D01*
X-24504Y247780D01*
X-24235Y248431D01*
Y249136D01*
X-24504Y249787D01*
X-25003Y250285D01*
X-25654Y250555D01*
X-26359D01*
X-27010Y250285D01*
X-27408Y249887D01*
X-42677D01*
Y250689D01*
X-44488D01*
Y253248D01*
X-42677D01*
Y253979D01*
X-27408D01*
X-27010Y253581D01*
X-26359Y253311D01*
X-25654D01*
X-25003Y253581D01*
X-24504Y254079D01*
X-24235Y254730D01*
Y255435D01*
X-24504Y256086D01*
X-25003Y256585D01*
X-25654Y256854D01*
X-26359D01*
X-27010Y256585D01*
X-27408Y256187D01*
X-42677D01*
Y256988D01*
X-44488D01*
Y259547D01*
X-42677D01*
Y259576D01*
X-34331D01*
X-34329Y259575D01*
X-33624D01*
X-33622Y259576D01*
X-22857D01*
X-22682Y259610D01*
X-22504D01*
X-22340Y259678D01*
X-22165Y259713D01*
X-22017Y259812D01*
X-21853Y259880D01*
X-21727Y260006D01*
X-21579Y260104D01*
X-21480Y260252D01*
X-21355Y260378D01*
X-21287Y260543D01*
X-21188Y260691D01*
X-21153Y260865D01*
X-21085Y261029D01*
Y261207D01*
X-21050Y261382D01*
X-21085Y261556D01*
Y261734D01*
X-21153Y261899D01*
X-21188Y262073D01*
X-21287Y262221D01*
X-21355Y262385D01*
X-21480Y262511D01*
X-21579Y262659D01*
X-21727Y262758D01*
X-21853Y262884D01*
X-22017Y262952D01*
X-22165Y263051D01*
X-22340Y263085D01*
X-22504Y263154D01*
X-22682D01*
X-22857Y263188D01*
X-42677D01*
Y263287D01*
X-44488D01*
Y265846D01*
X-42677D01*
Y265875D01*
X-34331D01*
X-34329Y265874D01*
X-33624D01*
X-33622Y265875D01*
X-22857D01*
X-22682Y265909D01*
X-22504D01*
X-22340Y265977D01*
X-22165Y266012D01*
X-22017Y266111D01*
X-21853Y266179D01*
X-21727Y266305D01*
X-21579Y266404D01*
X-21480Y266552D01*
X-21355Y266677D01*
X-21287Y266842D01*
X-21188Y266990D01*
X-21153Y267164D01*
X-21085Y267329D01*
Y267507D01*
X-21050Y267681D01*
X-21085Y267856D01*
Y268033D01*
X-21153Y268198D01*
X-21188Y268372D01*
X-21287Y268520D01*
X-21355Y268685D01*
X-21480Y268810D01*
X-21579Y268958D01*
X-21727Y269057D01*
X-21853Y269183D01*
X-22017Y269251D01*
X-22165Y269350D01*
X-22340Y269385D01*
X-22504Y269453D01*
X-22682D01*
X-22857Y269487D01*
X-42677D01*
Y269586D01*
X-44488D01*
Y272146D01*
X-42677D01*
Y272174D01*
X-34331D01*
X-34329Y272173D01*
X-33624D01*
X-33622Y272174D01*
X-22857D01*
X-22682Y272209D01*
X-22504D01*
X-22340Y272277D01*
X-22165Y272311D01*
X-22017Y272410D01*
X-21853Y272478D01*
X-21727Y272604D01*
X-21579Y272703D01*
X-21480Y272851D01*
X-21355Y272977D01*
X-21287Y273141D01*
X-21188Y273289D01*
X-21153Y273464D01*
X-21085Y273628D01*
Y273806D01*
X-21050Y273980D01*
X-21085Y274155D01*
Y274333D01*
X-21153Y274497D01*
X-21188Y274672D01*
X-21287Y274819D01*
X-21355Y274984D01*
X-21480Y275110D01*
X-21579Y275257D01*
X-21727Y275356D01*
X-21853Y275482D01*
X-22017Y275550D01*
X-22165Y275649D01*
X-22340Y275684D01*
X-22504Y275752D01*
X-22682D01*
X-22857Y275787D01*
X-42677D01*
Y275886D01*
X-44488D01*
Y282311D01*
X-38739D01*
X-38689Y282321D01*
X-38639Y282314D01*
X-38253Y282333D01*
X-38107Y282369D01*
X-37955Y282369D01*
X-37198Y282520D01*
X-37013Y282597D01*
X-36816Y282636D01*
X-36103Y282931D01*
X-35936Y283043D01*
X-35750Y283120D01*
X-35109Y283549D01*
X-34967Y283691D01*
X-34800Y283802D01*
X-34254Y284348D01*
X-34143Y284515D01*
X-34001Y284657D01*
X-33572Y285299D01*
X-33495Y285484D01*
X-33383Y285651D01*
X-33088Y286364D01*
X-33049Y286561D01*
X-32972Y286747D01*
X-32822Y287504D01*
X-32822Y287655D01*
X-32785Y287802D01*
X-32766Y288188D01*
X-32773Y288238D01*
X-32763Y288287D01*
X-32763Y300028D01*
X-29834Y300028D01*
X-29834Y298130D01*
X-29825Y298080D01*
X-29832Y298030D01*
X-29813Y297644D01*
X-29776Y297497D01*
Y297346D01*
X-29626Y296589D01*
X-29549Y296404D01*
X-29510Y296207D01*
X-29214Y295494D01*
X-29103Y295327D01*
X-29026Y295141D01*
X-28597Y294499D01*
X-28455Y294357D01*
X-28343Y294190D01*
X-27798Y293645D01*
X-27631Y293533D01*
X-27489Y293391D01*
X-26847Y292962D01*
X-26662Y292885D01*
X-26495Y292774D01*
X-25782Y292478D01*
X-25585Y292439D01*
X-25399Y292362D01*
X-24642Y292212D01*
X-24491D01*
X-24344Y292175D01*
X-23958Y292156D01*
X-23908Y292164D01*
X-23858Y292154D01*
X-0D01*
X780Y292309D01*
X1442Y292751D01*
X1884Y293413D01*
X2039Y294193D01*
X2039Y381890D01*
X2039Y382530D01*
X2206Y383800D01*
X2538Y385038D01*
X3028Y386221D01*
X3669Y387330D01*
X4448Y388347D01*
X5354Y389252D01*
X6370Y390032D01*
X7480Y390673D01*
X8663Y391163D01*
X9900Y391494D01*
X11170Y391662D01*
X544503D01*
X545773Y391494D01*
D02*
G37*
%LPC*%
G36*
X52321Y135236D02*
X51616D01*
X50965Y134967D01*
X50467Y134468D01*
X50197Y133817D01*
Y133112D01*
X50467Y132461D01*
X50865Y132063D01*
Y130535D01*
X50467Y130137D01*
X50197Y129486D01*
Y128781D01*
X50467Y128130D01*
X50965Y127632D01*
X51616Y127362D01*
X52321D01*
X52972Y127632D01*
X53470Y128130D01*
X53740Y128781D01*
Y129486D01*
X53470Y130137D01*
X53072Y130535D01*
Y132063D01*
X53470Y132461D01*
X53740Y133112D01*
Y133817D01*
X53470Y134468D01*
X52972Y134967D01*
X52321Y135236D01*
D02*
G37*
G36*
X31061Y144685D02*
X30356D01*
X29705Y144415D01*
X29207Y143917D01*
X28937Y143266D01*
Y142561D01*
X29207Y141910D01*
X29504Y141612D01*
Y136734D01*
X29207Y136437D01*
X28937Y135785D01*
Y135081D01*
X29207Y134430D01*
X29504Y134132D01*
Y129254D01*
X29207Y128956D01*
X28937Y128305D01*
Y127600D01*
X29207Y126949D01*
X29504Y126652D01*
Y121774D01*
X29207Y121476D01*
X28937Y120825D01*
Y120120D01*
X29207Y119469D01*
X29504Y119171D01*
Y112719D01*
X29207Y112421D01*
X28937Y111770D01*
Y111065D01*
X29207Y110414D01*
X29705Y109915D01*
X30356Y109646D01*
X31061D01*
X31712Y109915D01*
X32211Y110414D01*
X32480Y111065D01*
Y111770D01*
X32211Y112421D01*
X31913Y112719D01*
Y119171D01*
X32211Y119469D01*
X32480Y120120D01*
Y120825D01*
X32211Y121476D01*
X31913Y121774D01*
Y126652D01*
X32211Y126949D01*
X32480Y127600D01*
Y128305D01*
X32211Y128956D01*
X31913Y129254D01*
Y134132D01*
X32211Y134430D01*
X32480Y135081D01*
Y135785D01*
X32211Y136437D01*
X31913Y136734D01*
Y141612D01*
X32211Y141910D01*
X32480Y142561D01*
Y143266D01*
X32211Y143917D01*
X31712Y144415D01*
X31061Y144685D01*
D02*
G37*
%LPD*%
D15*
X30709Y111417D02*
Y120472D01*
X-48941Y113386D02*
X787D01*
X787Y113386D01*
X-48959Y113368D02*
X-48941Y113386D01*
X30709Y135433D02*
Y142913D01*
Y127953D02*
Y135433D01*
Y120472D02*
Y127953D01*
D16*
X-48976Y154295D02*
X-26006D01*
X-48976Y160594D02*
X-26006D01*
X-48976Y166894D02*
X-26006D01*
X-48976Y173193D02*
X-26006D01*
X-48976Y179492D02*
X-26006D01*
X-48976Y198390D02*
X-26006D01*
X-48976Y204689D02*
X-26006D01*
X-48976Y210988D02*
X-26006D01*
X-48976Y217287D02*
X-26006D01*
X-48976Y223587D02*
X-26006D01*
X-48976Y229886D02*
X-26006D01*
X-48976Y242484D02*
X-26006D01*
X-48976Y248783D02*
X-26006D01*
X-48976Y255083D02*
X-26006D01*
X51968Y129134D02*
Y133465D01*
X-48941Y144882D02*
X-35433D01*
X-48976Y144846D02*
X-48941Y144882D01*
X-48976Y129098D02*
X-38681D01*
X-27559Y117976D01*
X-48976Y236185D02*
X-26006D01*
D25*
X-48976Y280315D02*
D03*
Y277166D02*
D03*
Y274016D02*
D03*
Y270866D02*
D03*
Y267716D02*
D03*
Y264567D02*
D03*
Y261417D02*
D03*
Y258268D02*
D03*
Y255118D02*
D03*
Y251968D02*
D03*
Y248819D02*
D03*
Y245669D02*
D03*
Y242520D02*
D03*
Y239370D02*
D03*
Y236220D02*
D03*
Y233071D02*
D03*
Y229921D02*
D03*
Y226772D02*
D03*
Y223622D02*
D03*
Y220472D02*
D03*
Y217323D02*
D03*
Y214173D02*
D03*
Y211024D02*
D03*
Y207874D02*
D03*
Y204725D02*
D03*
Y201575D02*
D03*
Y198425D02*
D03*
Y182677D02*
D03*
Y179528D02*
D03*
Y176378D02*
D03*
Y173228D02*
D03*
Y170079D02*
D03*
Y166929D02*
D03*
Y163779D02*
D03*
Y160630D02*
D03*
Y157480D02*
D03*
Y154331D02*
D03*
Y151181D02*
D03*
Y148031D02*
D03*
Y144882D02*
D03*
Y141732D02*
D03*
Y138583D02*
D03*
Y135433D02*
D03*
Y132283D02*
D03*
Y129134D02*
D03*
Y125984D02*
D03*
Y122835D02*
D03*
Y119685D02*
D03*
Y116535D02*
D03*
Y113386D02*
D03*
D38*
X-26006Y273980D02*
X-22857D01*
X-28762D02*
X-26006D01*
X-31518D02*
X-28762D01*
X-36636D02*
X-31518D01*
X-48976D02*
X-36636D01*
X-26006Y267681D02*
X-22857D01*
X-28762D02*
X-26006D01*
X-31518D02*
X-28762D01*
X-36636D02*
X-31518D01*
X-48976D02*
X-36636D01*
X-26006Y261382D02*
X-22857D01*
X-28762D02*
X-26006D01*
X-31518D02*
X-28762D01*
X-36636D02*
X-31518D01*
X-48976D02*
X-36636D01*
D39*
X511811Y27559D02*
D03*
Y39370D02*
D03*
Y51181D02*
D03*
Y62992D02*
D03*
Y74803D02*
D03*
Y86614D02*
D03*
Y98425D02*
D03*
Y110236D02*
D03*
Y122047D02*
D03*
Y133858D02*
D03*
Y145669D02*
D03*
Y157480D02*
D03*
Y169291D02*
D03*
Y181102D02*
D03*
Y192913D02*
D03*
Y204724D02*
D03*
Y216535D02*
D03*
Y228346D02*
D03*
Y240158D02*
D03*
Y251969D02*
D03*
Y263779D02*
D03*
Y275590D02*
D03*
Y287402D02*
D03*
Y299213D02*
D03*
Y311024D02*
D03*
Y322835D02*
D03*
Y334646D02*
D03*
Y346457D02*
D03*
Y358268D02*
D03*
Y370079D02*
D03*
X30709Y111417D02*
D03*
X787Y113386D02*
D03*
X30709Y142913D02*
D03*
X-40551Y201575D02*
D03*
Y207874D02*
D03*
Y214173D02*
D03*
Y220472D02*
D03*
Y226772D02*
D03*
Y233071D02*
D03*
Y239370D02*
D03*
Y245669D02*
D03*
Y251969D02*
D03*
Y257874D02*
D03*
Y264567D02*
D03*
Y270866D02*
D03*
Y277165D02*
D03*
Y280315D02*
D03*
Y116535D02*
D03*
Y182677D02*
D03*
Y176378D02*
D03*
Y170079D02*
D03*
Y163779D02*
D03*
Y157480D02*
D03*
Y151181D02*
D03*
Y132283D02*
D03*
Y141339D02*
D03*
X59449Y138976D02*
D03*
X42070Y116702D02*
D03*
X30709Y127953D02*
D03*
Y135433D02*
D03*
Y120472D02*
D03*
X51968Y129134D02*
D03*
Y133465D02*
D03*
X-35433Y144882D02*
D03*
X-27559Y117976D02*
D03*
X-26006Y154295D02*
D03*
Y160594D02*
D03*
Y166894D02*
D03*
Y173193D02*
D03*
Y179492D02*
D03*
Y198390D02*
D03*
Y204689D02*
D03*
Y210988D02*
D03*
Y217287D02*
D03*
Y223587D02*
D03*
Y229886D02*
D03*
Y236185D02*
D03*
Y242484D02*
D03*
Y248783D02*
D03*
Y255083D02*
D03*
Y261382D02*
D03*
X-28762D02*
D03*
X-31518D02*
D03*
X-33977Y261346D02*
D03*
X-36636Y261382D02*
D03*
X-22857D02*
D03*
X-26006Y267681D02*
D03*
X-28762D02*
D03*
X-31518D02*
D03*
X-33977Y267646D02*
D03*
X-36636Y267681D02*
D03*
X-22857D02*
D03*
Y273980D02*
D03*
X-36636D02*
D03*
X-33977Y273945D02*
D03*
X-31518Y273980D02*
D03*
X-28762D02*
D03*
X-26006D02*
D03*
D40*
X112992Y334646D02*
D03*
M02*
